<svg xmlns="http://www.w3.org/2000/svg" xmlns:xlink="http://www.w3.org/1999/xlink" contentStyleType="text/css" data-diagram-type="DESCRIPTION" height="73px" preserveAspectRatio="none" style="width:161px;height:73px;background:#FFFFFF;" version="1.1" viewBox="0 0 161 73" width="161px" zoomAndPan="magnify"><defs/><g><!--entity Component--><g class="entity" data-entity="Component" data-source-line="167" data-uid="ent0002" id="entity_Component"><rect fill="#C2F0FF" height="52.9688" rx="0.5" ry="0.5" style="stroke:#181818;stroke-width:0.5;" width="140" x="7" y="7"/><path d="M136.76,21.639 L121.934,21.686 A0.5001,0.5001 0 0 0 121.4343,22.1857 L121.4343,23.6233 L118.9461,23.6037 A0.5001,0.5001 0 0 0 118.4417,24.1039 L118.4417,26.0392 A0.5001,0.5001 0 0 0 118.942,26.5395 L121.4225,26.5395 L121.3987,27.5823 L118.8991,27.5626 A0.5001,0.5001 0 0 0 118.3952,28.0628 L118.3952,29.9981 A0.5001,0.5001 0 0 0 118.8949,30.4984 L121.3873,30.4984 L121.3873,33.5003 A0.5001,0.5001 0 0 0 121.8876,34.0005 L136.7606,34.047 A0.5001,0.5001 0 0 0 137.2624,33.5473 L137.2624,22.1393 A0.5001,0.5001 0 0 0 136.7606,21.6391 M136.2618,22.641 L136.2618,33.045 L122.3868,33.0021 L122.3868,30.4984 L124.8812,30.4984 A0.5001,0.5001 0 0 0 125.381,29.9982 L125.381,28.1099 A0.5001,0.5001 0 0 0 124.8849,27.6096 L122.3987,27.59 L122.4225,26.5394 L124.9278,26.5394 A0.5001,0.5001 0 0 0 125.428,26.0392 L125.428,24.1504 A0.5001,0.5001 0 0 0 124.9319,23.6507 L122.4339,23.631 L122.4339,22.6838 M119.4418,24.6078 L124.4281,24.6466 L124.4281,25.5395 L119.4418,25.5395 M119.3948,28.5667 L124.3811,28.606 L124.3811,29.4984 L119.3948,29.4984" fill="#000000"/><text fill="#000000" font-family="Verdana" font-size="12" lengthAdjust="spacing" textLength="69.668" x="42.166" y="47.1387">Component</text></g><!--SRC=[FSj12e0W443HVQSmLmL15uX0F4XC9ZMeCp9DzyzDxHvy_fsGAWWKiqD8f_13X-VCObI0xfOYQTSZXVmSqImWuS826cVtQUrShHa3A39jdajbQjFmQpBsjnrV]--></g></svg>