<svg xmlns="http://www.w3.org/2000/svg" xmlns:xlink="http://www.w3.org/1999/xlink" contentStyleType="text/css" data-diagram-type="DESCRIPTION" height="73px" preserveAspectRatio="none" style="width:161px;height:73px;background:#FFFFFF;" version="1.1" viewBox="0 0 161 73" width="161px" zoomAndPan="magnify"><defs/><g><!--entity Interaction--><g class="entity" data-entity="Interaction" data-source-line="179" data-uid="ent0002" id="entity_Interaction"><rect fill="#C2F0FF" height="52.9688" rx="12.5" ry="12.5" style="stroke:#181818;stroke-width:0.5;" width="140" x="7" y="7"/><path d="M126.56,21.67 C124.3356,21.666 122.278,22.8541 121.1676,24.7814 C120.0572,26.7087 120.0635,29.0844 121.1831,31.0064 C122.3028,32.9283 124.3667,34.1051 126.591,34.0899 A0.5001,0.5001 0 0 0 127.0871,33.586 L127.0483,27.8794 L127.0597,22.1723 A0.5001,0.5001 0 0 0 126.56,21.67 M129.4348,21.67 A0.5001,0.5001 0 0 0 128.9372,22.1744 L128.9759,27.881 L128.9645,33.5902 A0.5001,0.5001 0 0 0 129.4642,34.0899 C131.6885,34.0939 133.7463,32.9078 134.8566,30.9805 C135.9669,29.0532 135.9628,26.6759 134.8432,24.754 C133.7236,22.8321 131.659,21.6547 129.4347,21.67 M129.9407,22.8012 C131.6007,22.9592 133.1279,23.7983 133.9782,25.2579 C134.9183,26.8716 134.9239,28.8626 133.9916,30.4808 C133.1485,31.9442 131.6254,32.7909 129.9665,32.9571 L129.9765,27.8809 A0.5001,0.5001 0 0 0 129.9765,27.8769 M126.0583,22.8032 L126.048,27.8794 A0.5001,0.5001 0 0 0 126.048,27.8854 L126.0836,32.9595 C124.4238,32.8014 122.8964,31.9617 122.0461,30.5023 C121.106,28.8886 121.1024,26.8981 122.0347,25.2799 C122.8779,23.8164 124.3992,22.9698 126.0582,22.8036" fill="#000000"/><text fill="#000000" font-family="Verdana" font-size="12" lengthAdjust="spacing" textLength="65.1035" x="44.4482" y="47.1387">Interaction</text></g><!--SRC=[JSan2e0m343HlQUedHG4Bo22E7aAYR5eiAObJU-l3eBR-_ny4YSGkEmAUEuI2szJ356i2d1-bcSr5J66iddRW-115wZlna-36LCAXA0KUPbPlG2-hdzkhVkLQsu0]--></g></svg>