<svg xmlns="http://www.w3.org/2000/svg" xmlns:xlink="http://www.w3.org/1999/xlink" contentStyleType="text/css" data-diagram-type="DESCRIPTION" height="73px" preserveAspectRatio="none" style="width:161px;height:73px;background:#FFFFFF;" version="1.1" viewBox="0 0 161 73" width="161px" zoomAndPan="magnify"><defs/><g><!--entity Interface--><g class="entity" data-entity="Interface" data-source-line="173" data-uid="ent0002" id="entity_Interface"><rect fill="#C2F0FF" height="52.9688" rx="0.5" ry="0.5" style="stroke:#181818;stroke-width:0.5;" width="140" x="7" y="7"/><path d="M130.495,20.33 C127.1568,20.3754 124.4614,23.0618 124.3734,26.371 L119.0006,26.371 A0.5,0.5 0 0 0 118.5009,26.8707 A0.5,0.5 0 0 0 119.0006,27.3709 L124.4271,27.3709 C124.8382,30.4299 127.4805,32.7822 130.6433,32.7499 C134.0627,32.7149 136.8189,29.9056 136.7897,26.4862 C136.7605,23.0668 133.9574,20.3066 130.5379,20.33 A0.5,0.5 0 0 0 130.526,20.3414 A0.5,0.5 0 0 0 130.495,20.33 M130.5183,21.3201 A0.5,0.5 0 0 0 130.5436,21.3301 C133.4233,21.3104 135.7652,23.6166 135.7898,26.4962 C135.8143,29.3758 133.5131,31.7207 130.6335,31.7502 C127.7539,31.7796 125.4041,29.4812 125.3697,26.6017 C125.3354,23.7222 127.6289,21.3694 130.5084,21.3302 A0.5,0.5 0 0 0 130.5182,21.3202" fill="#000000"/><text fill="#000000" font-family="Verdana" font-size="12" lengthAdjust="spacing" textLength="53.7246" x="50.1377" y="47.1387">Interface</text></g><!--SRC=[FSan2e0m3030tLTK9mN13uXGd7o5n1WrjAObnl_hejl1NO4bWyBf5i2mQxfb7LDCwan1hhT8h2XPCDuhkHuK3px1gFEVXiBd71d1ECayYP5kW5J_QbtrkseU]--></g></svg>