<svg xmlns="http://www.w3.org/2000/svg" xmlns:xlink="http://www.w3.org/1999/xlink" contentStyleType="text/css" data-diagram-type="DESCRIPTION" height="73px" preserveAspectRatio="none" style="width:161px;height:73px;background:#FFFFFF;" version="1.1" viewBox="0 0 161 73" width="161px" zoomAndPan="magnify"><defs/><g><!--entity DataObject--><g class="entity" data-entity="DataObject" data-source-line="195" data-uid="ent0002" id="entity_DataObject"><rect fill="#C2F0FF" height="52.9688" rx="0.5" ry="0.5" style="stroke:#181818;stroke-width:0.5;" width="140" x="7" y="7"/><path d="M119.05,20.71 A0.5001,0.5001 0 0 0 118.5498,21.2097 L118.5498,33.4177 A0.5001,0.5001 0 0 0 119.05,33.9174 L137.103,33.9174 A0.5001,0.5001 0 0 0 137.6032,33.4177 L137.6032,21.2097 A0.5001,0.5001 0 0 0 137.103,20.71 M119.5497,21.7099 L136.6027,21.7099 L136.6027,23.795 L119.5497,23.7061 M119.5497,24.7061 L136.6027,24.795 L136.6027,32.917 L119.5497,32.917" fill="#000000"/><text fill="#000000" font-family="Verdana" font-size="12" lengthAdjust="spacing" textLength="67.7344" x="43.1328" y="47.1387">DataObject</text></g><!--SRC=[AyxEp2j8B4hCLKXAJCvEByelpKjnpi_9Br8eAKhCAmPAfUQLS2bcvYNdbAQaAjWa5YLdPEOcbgJgEy9OTboE1GKvcSc99PdvUV4kYIM9_abPgSab6WYcZe8IWgEa2G00]--></g></svg>