<svg xmlns="http://www.w3.org/2000/svg" xmlns:xlink="http://www.w3.org/1999/xlink" contentStyleType="text/css" data-diagram-type="DESCRIPTION" height="73px" preserveAspectRatio="none" style="width:161px;height:73px;background:#FFFFFF;" version="1.1" viewBox="0 0 161 73" width="161px" zoomAndPan="magnify"><defs/><g><!--entity Event--><g class="entity" data-entity="Event" data-source-line="185" data-uid="ent0002" id="entity_Event"><rect fill="#C2F0FF" height="52.9688" rx="12.5" ry="12.5" style="stroke:#181818;stroke-width:0.5;" width="140" x="7" y="7"/><path d="M119.12,23.41 A0.5001,0.5001 0 0 0 118.7805,24.2771 L123.2061,28.3699 C122.7446,28.7806 121.9582,29.4821 121.1731,30.191 C120.5627,30.7423 119.9532,31.2972 119.4952,31.7263 C119.2662,31.9409 119.0751,32.1238 118.9366,32.2633 C118.8673,32.333 118.8124,32.39 118.7645,32.4452 C118.7406,32.4728 118.7189,32.4972 118.6906,32.5387 C118.6764,32.5595 118.6597,32.5837 118.6379,32.6328 C118.627,32.6574 118.6154,32.6887 118.6048,32.7397 C118.5998,32.7652 118.5929,32.8332 118.5929,32.8338 C118.5929,32.8345 118.6103,32.9739 118.6105,32.9744 A0.5001,0.5001 0 0 0 119.0932,33.3454 L131.7432,33.3454 A0.5,0.5 0 0 0 131.7472,33.3454 C134.4344,33.3206 136.5944,31.0675 136.5733,28.338 C136.5521,25.6102 134.3613,23.3942 131.6764,23.4101 C131.6754,23.4101 131.6744,23.4101 131.6724,23.4101 L131.6664,23.4101 M120.3974,24.4099 L131.6724,24.4099 A0.5,0.5 0 0 0 131.6764,24.4099 A0.5,0.5 0 0 0 131.6804,24.4099 C133.8134,24.3974 135.5556,26.1456 135.5727,28.3456 C135.5898,30.5435 133.8793,32.32 131.7492,32.3454 C131.7472,32.3455 131.7452,32.3454 131.7432,32.3454 L120.2992,32.3454 C120.7362,31.938 121.2785,31.4423 121.8423,30.9331 C122.9658,29.9185 124.0937,28.9168 124.2592,28.7699 A0.5,0.5 0 0 0 124.3171,28.7167 A0.5,0.5 0 0 0 124.3977,28.5963 A0.5,0.5 0 0 0 124.3987,28.5943 A0.5,0.5 0 0 0 124.4214,28.539 A0.5,0.5 0 0 0 124.4254,28.5261 A0.5,0.5 0 0 0 124.4388,28.4755 A0.5,0.5 0 0 0 124.4408,28.46 A0.5,0.5 0 0 0 124.4468,28.415 A0.5,0.5 0 0 0 124.4478,28.3871 A0.5,0.5 0 0 0 124.4473,28.3483 A0.5,0.5 0 0 0 124.4443,28.3256 A0.5,0.5 0 0 0 124.4383,28.2832 A0.5,0.5 0 0 0 124.4313,28.2543 A0.5,0.5 0 0 0 124.4233,28.2249 A0.5,0.5 0 0 0 124.4088,28.1867 A0.5,0.5 0 0 0 124.3998,28.164 A0.5,0.5 0 0 0 124.3326,28.0591 A0.5,0.5 0 0 0 124.3316,28.0581 A0.5,0.5 0 0 0 124.3226,28.0467 A0.5,0.5 0 0 0 124.2663,27.9919" fill="#000000"/><text fill="#000000" font-family="Verdana" font-size="12" lengthAdjust="spacing" textLength="34.377" x="59.8115" y="47.1387">Event</text></g><!--SRC=[AyxEp2j8B4hCLKXAJCvEByelpKjnpi_9Br8eAKhCAmPAfUQLS2bcvYNdbAQaAjWa5YLdPEOcbgJgEy9OTboE1GKvcSc99PdvUV6kPK0D6c1IHq49J2jf0W00]--></g></svg>