<svg xmlns="http://www.w3.org/2000/svg" xmlns:xlink="http://www.w3.org/1999/xlink" contentStyleType="text/css" data-diagram-type="DESCRIPTION" height="73px" preserveAspectRatio="none" style="width:161px;height:73px;background:#FFFFFF;" version="1.1" viewBox="0 0 161 73" width="161px" zoomAndPan="magnify"><defs/><g><!--entity Role--><g class="entity" data-entity="Role" data-source-line="117" data-uid="ent0002" id="entity_Role"><rect fill="#FFFFCC" height="52.9688" rx="0.5" ry="0.5" style="stroke:#181818;stroke-width:0.5;" width="140" x="7" y="7"/><path d="M133.445,22.474 L122.582,22.4818 A0.5,0.5 0 0 0 122.5722,22.4818 C121.5839,22.4997 120.7112,23.0491 120.1114,23.859 C119.5116,24.669 119.1589,25.7471 119.1585,26.927 C119.1581,28.1069 119.5101,29.187 120.1093,29.9976 C120.7085,30.8082 121.5803,31.3572 122.5686,31.3763 A0.5,0.5 0 0 0 122.5779,31.3763 A0.5,0.5 0 0 0 122.5877,31.3763 L133.5097,31.3861 L133.5097,31.3851 C134.3349,31.3834 135.1528,30.9734 135.7695,30.2203 A0.5,0.5 0 0 0 135.7887,30.1557 A0.5,0.5 0 0 0 135.8491,30.1206 C137.1454,28.4284 137.2103,25.7761 136.0155,23.9721 C135.4181,23.0701 134.5662,22.5335 133.6678,22.4776 C133.6151,22.4743 133.5624,22.4749 133.5097,22.475 L133.5097,22.474 L133.4477,22.474 C133.4468,22.474 133.4455,22.4739 133.4446,22.474 M133.5101,23.4729 C133.5421,23.473 133.5739,23.474 133.6057,23.476 C134.1531,23.51 134.7215,23.828 135.1818,24.523 C136.1024,25.913 136.0368,28.2319 135.0568,29.5113 A0.5,0.5 0 0 0 135.0433,29.562 A0.5,0.5 0 0 0 134.9963,29.5873 C134.5339,30.1519 134.0163,30.3886 133.5101,30.3862 L133.5075,30.3862 C133.4646,30.3859 133.4215,30.3836 133.3788,30.38 C132.8315,30.3333 132.2634,30.0014 131.8104,29.2943 C130.9045,27.8801 130.9998,25.5634 131.9923,24.3101 C132.4393,23.7457 132.9462,23.4936 133.4423,23.474 L133.51,23.474 M131.3914,23.4755 C131.3289,23.5434 131.2678,23.6146 131.209,23.6889 C129.8901,25.3543 129.7961,28.0051 130.9671,29.8332 C131.0963,30.0349 131.2378,30.2189 131.3899,30.3841 L122.5884,30.3763 L122.5878,30.3763 C121.9563,30.3641 121.3699,30.0204 120.914,29.4038 C120.4582,28.7871 120.1582,27.906 120.1585,26.9269 C120.1589,25.9478 120.4578,25.0686 120.914,24.4526 C121.3703,23.8365 121.9583,23.493 122.5899,23.4816" fill="#000000"/><text fill="#000000" font-family="Verdana" font-size="12" lengthAdjust="spacing" textLength="26.3965" x="63.8018" y="47.1387">Role</text></g><!--SRC=[AyxEp2j8B4hCLKXAJCvEByelpKjnpi_9Br8eAKhCAmPAfUQLS2bcvYNdbAQaAjWa5YLdPEOcbgJgEy9OTbnEfSMPUQd5nV51-Jcf6Y12Hq49H2bf0W00]--></g></svg>