<svg xmlns="http://www.w3.org/2000/svg" xmlns:xlink="http://www.w3.org/1999/xlink" contentStyleType="text/css" data-diagram-type="DESCRIPTION" height="73px" preserveAspectRatio="none" style="width:161px;height:73px;background:#FFFFFF;" version="1.1" viewBox="0 0 161 73" width="161px" zoomAndPan="magnify"><defs/><g><!--entity Contract--><g class="entity" data-entity="Contract" data-source-line="149" data-uid="ent0002" id="entity_Contract"><rect fill="#FFFFCC" height="52.9688" rx="0.5" ry="0.5" style="stroke:#181818;stroke-width:0.5;" width="140" x="7" y="7"/><path d="M119.05,20.71 A0.5001,0.5001 0 0 0 118.5503,21.2097 L118.5503,33.4177 A0.5001,0.5001 0 0 0 119.05,33.9174 L137.105,33.9174 A0.5001,0.5001 0 0 0 137.6052,33.4177 L137.6052,21.2097 A0.5001,0.5001 0 0 0 137.105,20.71 M119.5502,21.7099 L136.6052,21.7099 L136.6052,23.795 L119.5502,23.7061 M119.5502,24.7061 L136.6052,24.795 L136.6052,29.9688 L119.5502,29.8799 M119.5502,30.8799 L136.6052,30.9688 L136.6052,32.917 L119.5502,32.917" fill="#000000"/><text fill="#000000" font-family="Verdana" font-size="12" lengthAdjust="spacing" textLength="51.6211" x="51.1895" y="47.1387">Contract</text></g><!--SRC=[DSj12e0W443HVQSmLmL15uYWF4XCevIeOype_NFZxi7dI_3q0KDIDs1uE5Uo9iVCgZ2GjEIe3ACdZDKwjG7ZwnCKjnvT-t1MyUH4BfEfRLYcZaNfJZt_]--></g></svg>