<svg xmlns="http://www.w3.org/2000/svg" xmlns:xlink="http://www.w3.org/1999/xlink" contentStyleType="text/css" data-diagram-type="DESCRIPTION" height="73px" preserveAspectRatio="none" style="width:161px;height:73px;background:#FFFFFF;" version="1.1" viewBox="0 0 161 73" width="161px" zoomAndPan="magnify"><defs/><g><!--entity Function--><g class="entity" data-entity="Function" data-source-line="130" data-uid="ent0002" id="entity_Function"><rect fill="#FFFFCC" height="52.9688" rx="12.5" ry="12.5" style="stroke:#181818;stroke-width:0.5;" width="140" x="7" y="7"/><path d="M127.759,21.32 L118.7961,25.2888 A0.5001,0.5001 0 0 0 118.4992,25.7458 L118.4992,33.7829 A0.5001,0.5001 0 0 0 119.2004,34.24 L127.9953,30.3611 L136.7883,34.24 A0.5001,0.5001 0 0 0 137.4914,33.7829 L137.4914,25.779 A0.5001,0.5001 0 0 0 137.1926,25.322 L128.1653,21.32 A0.5001,0.5001 0 0 0 127.759,21.32 M127.9621,22.3239 L136.4914,26.1032 L136.4914,33.0173 L128.1965,29.3571 A0.5001,0.5001 0 0 0 127.7922,29.3571 L119.4992,33.0173 L119.4992,26.072" fill="#000000"/><text fill="#000000" font-family="Verdana" font-size="12" lengthAdjust="spacing" textLength="51.6973" x="51.1514" y="47.1387">Function</text></g><!--SRC=[DSb12e0W4030kwymJmL17uYWWhuHcqejwXgx-l-wU1iO2KWlC2HzWGqtvqfkpp6pBWmaVtaggaEoiJglPs3xO8BYfxLfKLiL92zo7fLimKnzmwXDena-]--></g></svg>