<svg xmlns="http://www.w3.org/2000/svg" xmlns:xlink="http://www.w3.org/1999/xlink" contentStyleType="text/css" data-diagram-type="DESCRIPTION" height="73px" preserveAspectRatio="none" style="width:161px;height:73px;background:#FFFFFF;" version="1.1" viewBox="0 0 161 73" width="161px" zoomAndPan="magnify"><defs/><g><!--entity Product--><g class="entity" data-entity="Product" data-source-line="158" data-uid="ent0002" id="entity_Product"><rect fill="#FFFFCC" height="52.9688" rx="0.5" ry="0.5" style="stroke:#181818;stroke-width:0.5;" width="140" x="7" y="7"/><path d="M119.02,20.85 A0.5001,0.5001 0 0 0 118.5203,21.3502 L118.5203,33.5572 A0.5001,0.5001 0 0 0 119.02,34.0569 L137.075,34.0569 A0.5001,0.5001 0 0 0 137.5752,33.5572 L137.5752,21.3502 A0.5001,0.5001 0 0 0 137.075,20.85 M119.5202,21.8499 L127.4536,21.8499 L127.4536,23.887 L119.5202,23.8462 M128.4535,21.8499 L136.575,21.8499 L136.575,33.0569 L119.52,33.0569 L119.52,24.846 L127.9515,24.8889 A0.5001,0.5001 0 0 0 128.4533,24.3887" fill="#000000"/><text fill="#000000" font-family="Verdana" font-size="12" lengthAdjust="spacing" textLength="46.0371" x="53.9814" y="47.1387">Product</text></g><!--SRC=[AyxEp2j8B4hCLKXAJCvEByelpKjnpi_9Br8eAKhCAmPAfUQLS2bcvYNdbAQaAjWa5YLdPEOcbgJgEy9OTbnEfSMPUQd5nV41HVaffSab6b1QHq49obBI1000]--></g></svg>