<svg xmlns="http://www.w3.org/2000/svg" xmlns:xlink="http://www.w3.org/1999/xlink" contentStyleType="text/css" data-diagram-type="DESCRIPTION" height="73px" preserveAspectRatio="none" style="width:161px;height:73px;background:#FFFFFF;" version="1.1" viewBox="0 0 161 73" width="161px" zoomAndPan="magnify"><defs/><g><!--entity Representation--><g class="entity" data-entity="Representation" data-source-line="152" data-uid="ent0002" id="entity_Representation"><rect fill="#FFFFCC" height="52.9688" rx="0.5" ry="0.5" style="stroke:#181818;stroke-width:0.5;" width="140" x="7" y="7"/><path d="M119,20.8 A0.5001,0.5001 0 0 0 118.4998,21.3002 L118.4998,33.5072 A0.5001,0.5001 0 0 0 118.7013,33.9077 C120.5727,35.3028 122.0681,35.8192 123.3537,35.7164 C124.6393,35.6136 125.6193,34.8938 126.4569,34.0695 C127.2945,33.2452 128.0279,32.3 128.8361,31.5973 C129.6443,30.8947 130.4837,30.4349 131.6308,30.4682 C133.0642,30.5098 133.9591,30.9713 134.7014,31.6087 C135.4438,32.2462 136.0114,33.0829 136.6796,33.8391 A0.5001,0.5001 0 0 0 137.5529,33.5094 C137.5559,31.0608 137.5529,21.3004 137.5529,21.3004 A0.5001,0.5001 0 0 0 137.0527,20.8002 M119.5002,21.7999 L136.5532,21.7999 C136.5533,22.0076 136.5535,22.7986 136.5537,23.8856 L119.5007,23.7962 M119.5002,24.7961 L136.5532,24.8834 C136.5536,27.1973 136.5539,30.2666 136.5527,32.1966 C136.1773,31.7357 135.8564,31.2848 135.3512,30.851 C134.478,30.1013 133.3071,29.5159 131.66,29.4681 C130.2198,29.4263 129.0922,30.0477 128.1796,30.8411 C127.267,31.6346 126.5242,32.6001 125.7555,33.3567 C124.9868,34.1134 124.2316,34.6433 123.2735,34.7199 C122.3575,34.7931 121.1423,34.4017 119.5001,33.2239" fill="#000000"/><text fill="#000000" font-family="Verdana" font-size="12" lengthAdjust="spacing" textLength="91.9395" x="31.0303" y="47.1387">Representation</text></g><!--SRC=[AyxEp2j8B4hCLKXAJCvEByelpKjnpi_9Br8eAKhCAmPAfUQLS2bcvYNdbAQaAjWa5YLdPEOcbgJgEy9OTbnEfSMPUQd5nV51gGL5gSL07OabcVbv6gXS7GKbL04bJG00]--></g></svg>