<svg xmlns="http://www.w3.org/2000/svg" xmlns:xlink="http://www.w3.org/1999/xlink" contentStyleType="text/css" data-diagram-type="DESCRIPTION" height="73px" preserveAspectRatio="none" style="width:161px;height:73px;background:#FFFFFF;" version="1.1" viewBox="0 0 161 73" width="161px" zoomAndPan="magnify"><defs/><g><!--entity Process--><g class="entity" data-entity="Process" data-source-line="127" data-uid="ent0002" id="entity_Process"><rect fill="#FFFFCC" height="52.9688" rx="12.5" ry="12.5" style="stroke:#181818;stroke-width:0.5;" width="140" x="7" y="7"/><path d="M131.729,20.5 A0.5001,0.5001 0 0 0 131.4009,20.9746 L131.4263,23.6113 L118.8693,23.6153 A0.5001,0.5001 0 0 0 118.3693,24.1153 L118.3654,30.1641 A0.5001,0.5001 0 0 0 118.8673,30.6641 L131.3963,30.6172 L131.3963,32.9434 A0.5001,0.5001 0 0 0 132.2791,33.2637 L137.2732,27.3106 A0.5001,0.5001 0 0 0 137.2752,26.67 L132.285,20.6505 A0.5001,0.5001 0 0 0 131.7284,20.5001 M132.4146,22.373 L136.2408,26.9882 L132.397,31.5683 L132.397,30.1152 A0.5001,0.5001 0 0 0 131.895,29.6152 L119.366,29.6621 L119.3699,24.6152 L131.9309,24.6112 A0.5001,0.5001 0 0 0 132.4309,24.1073" fill="#000000"/><text fill="#000000" font-family="Verdana" font-size="12" lengthAdjust="spacing" textLength="45.9961" x="54.002" y="47.1387">Process</text></g><!--SRC=[AyxEp2j8B4hCLKXAJCvEByelpKjnpi_9Br8eAKhCAmPAfUQLS2bcvYNdbAQaAjWa5YLdPEOcbgJgEy9OTbnEfSMPUQd5nV41HVd9G5e3IkieA45PIfe0]--></g></svg>