<svg xmlns="http://www.w3.org/2000/svg" xmlns:xlink="http://www.w3.org/1999/xlink" contentStyleType="text/css" data-diagram-type="DESCRIPTION" height="73px" preserveAspectRatio="none" style="width:161px;height:73px;background:#FFFFFF;" version="1.1" viewBox="0 0 161 73" width="161px" zoomAndPan="magnify"><defs/><g><!--entity Actor--><g class="entity" data-entity="Actor" data-source-line="110" data-uid="ent0002" id="entity_Actor"><rect fill="#FFFFCC" height="52.9688" rx="0.5" ry="0.5" style="stroke:#181818;stroke-width:0.5;" width="140" x="7" y="7"/><path d="M127.8958,17.95 C125.8974,17.9772 124.2882,19.6273 124.312,21.6258 C124.3338,23.4474 125.706,24.9474 127.4622,25.1832 L127.4622,26.393 L121.9778,26.3775 A0.5,0.5 0 0 0 121.4761,26.8757 A0.5,0.5 0 0 0 121.9742,27.3774 L127.4622,27.3929 L127.4622,30.5963 L124.5187,35.7231 A0.5,0.5 0 0 0 124.7042,36.4047 A0.5,0.5 0 0 0 125.3859,36.2213 L127.9036,31.8345 L130.5091,36.196 A0.5006,0.5006 0 0 0 131.3684,35.6823 L128.4621,30.8071 L128.4621,27.3954 L133.9796,27.4109 A0.5,0.5 0 0 0 134.4819,26.9107 A0.5,0.5 0 0 0 133.9838,26.411 L128.4622,26.3955 L128.4622,25.179 C130.2335,24.9255 131.595,23.3875 131.5793,21.5513 C131.5622,19.5528 129.9196,17.9363 127.9211,17.95 A0.5,0.5 0 0 0 127.9097,17.956 A0.5,0.5 0 0 0 127.8958,17.95 M127.9191,18.9458 A0.5,0.5 0 0 0 127.9289,18.9498 C129.3876,18.9398 130.5669,20.1003 130.5794,21.5589 C130.5919,23.0176 129.4325,24.2007 127.9739,24.2156 C126.5153,24.2305 125.3294,23.0723 125.312,21.6137 C125.2946,20.1551 126.4512,18.9696 127.9098,18.9498 A0.5,0.5 0 0 0 127.9191,18.9458" fill="#000000"/><text fill="#000000" font-family="Verdana" font-size="12" lengthAdjust="spacing" textLength="31.7871" x="61.1064" y="47.1387">Actor</text></g><!--SRC=[DOb12e0W403lli8y5GHz80Bh8R6PbAYxiQl_BuGkCmCZCU0335aVuEB5LF7SA17hme3oBOz5TG5TggVNCx2xGuRY9_lNejOg0Rt8RbqXxXj7RPhDy080]--></g></svg>