<svg xmlns="http://www.w3.org/2000/svg" xmlns:xlink="http://www.w3.org/1999/xlink" contentStyleType="text/css" data-diagram-type="DESCRIPTION" height="73px" preserveAspectRatio="none" style="width:161px;height:73px;background:#FFFFFF;" version="1.1" viewBox="0 0 161 73" width="161px" zoomAndPan="magnify"><defs/><g><!--entity Location--><g class="entity" data-entity="Location" data-source-line="162" data-uid="ent0002" id="entity_Location"><rect fill="#FFFFCC" height="52.9688" rx="0.5" ry="0.5" style="stroke:#181818;stroke-width:0.5;" width="140" x="7" y="7"/><path d="M128.09,18.893 C124.8366,18.9115 122.4627,21.4062 122.4338,24.8793 C122.4158,27.0321 123.521,28.4243 124.6623,29.7855 C125.8036,31.1467 127.0043,32.5215 127.5393,34.85 A0.5001,0.5001 0 0 0 128.5159,34.8383 C128.985,32.5396 130.2167,31.1778 131.4182,29.8188 C132.6198,28.4598 133.8186,27.0632 133.8186,24.8833 C133.8186,23.0375 133.2014,21.5186 132.1624,20.4771 C131.1233,19.4356 129.6781,18.8841 128.0901,18.8931 M128.096,19.893 C129.4522,19.8853 130.6178,20.3425 131.4554,21.1821 C132.293,22.0216 132.8187,23.2564 132.8187,24.8833 C132.8187,26.7051 131.8665,27.8037 130.6703,29.1567 C129.696,30.2587 128.688,31.6456 128.0238,33.4536 C127.3383,31.6356 126.3529,30.2461 125.4281,29.1431 C124.2956,27.7924 123.4188,26.7032 123.434,24.8872 C123.4593,21.8446 125.3308,19.9088 128.0961,19.8931" fill="#000000"/><text fill="#000000" font-family="Verdana" font-size="12" lengthAdjust="spacing" textLength="50.9648" x="51.5176" y="47.1387">Location</text></g><!--SRC=[DSan2e0m3030tLVKJWg27n11NVs3nBHeK1D9sl_hqktWx29-GU5nE-1rg6GEYzoYBYcm_HKvLJKntZb4Du3YIG-as4z5OpLd8uvcsoe8YOIRWixvGjz-]--></g></svg>