<svg xmlns="http://www.w3.org/2000/svg" xmlns:xlink="http://www.w3.org/1999/xlink" contentStyleType="text/css" data-diagram-type="DESCRIPTION" height="82px" preserveAspectRatio="none" style="width:171px;height:82px;background:#FFFFFF;" version="1.1" viewBox="0 0 171 82" width="171px" zoomAndPan="magnify"><defs><filter height="300%" id="f12cunfzm70ky4" width="300%" x="-1" y="-1"><feGaussianBlur result="blurOut" stdDeviation="2"/><feColorMatrix in="blurOut" result="blurOut2" type="matrix" values="0 0 0 0 0 0 0 0 0 0 0 0 0 0 0 0 0 0 .4 0"/><feOffset dx="4" dy="4" in="blurOut2" result="blurOut3"/><feBlend in="SourceGraphic" in2="blurOut3" mode="normal"/></filter></defs><g><!--entity Grouping--><g class="entity" data-entity="Grouping" data-source-line="340" data-uid="ent0002" id="entity_Grouping"><path d="M9.5,7 L50.5,7 A3.75,3.75 0 0 1 53,9.5 L60,28 L154.5,28 A2.5,2.5 0 0 1 157,30.5 L157,66.4688 A2.5,2.5 0 0 1 154.5,68.9688 L9.5,68.9688 A2.5,2.5 0 0 1 7,66.4688 L7,9.5 A2.5,2.5 0 0 1 9.5,7" fill="#FFFFFF" filter="url(#f12cunfzm70ky4)" style="stroke:#444444;stroke-width:0.5;stroke-dasharray:8,5;"/><line style="stroke:#444444;stroke-width:0.5;stroke-dasharray:8,5;" x1="7" x2="60" y1="28" y2="28"/><text fill="#000000" font-family="Verdana" font-size="12" lengthAdjust="spacing" textLength="55.3535" x="49.3232" y="56.1387">Grouping</text></g><!--SRC=[AyxEp2j8B4hCLKXAJCvEByelpKjnpi_9Br8eAKhCAmPAfUQLS2bcvYNdbAQaAjWa5YLdPEOcbgJgEy9OTbpkG6q5cNdf6Z26Ze8IZAca2G00]--></g></svg>