<svg xmlns="http://www.w3.org/2000/svg" xmlns:xlink="http://www.w3.org/1999/xlink" contentStyleType="text/css" data-diagram-type="DESCRIPTION" height="82px" preserveAspectRatio="none" style="width:171px;height:82px;background:#FFFFFF;" version="1.1" viewBox="0 0 171 82" width="171px" zoomAndPan="magnify"><defs><filter height="300%" id="fykckloo0bthi" width="300%" x="-1" y="-1"><feGaussianBlur result="blurOut" stdDeviation="2"/><feColorMatrix in="blurOut" result="blurOut2" type="matrix" values="0 0 0 0 0 0 0 0 0 0 0 0 0 0 0 0 0 0 .4 0"/><feOffset dx="4" dy="4" in="blurOut2" result="blurOut3"/><feBlend in="SourceGraphic" in2="blurOut3" mode="normal"/></filter></defs><g><!--entity Group--><g class="entity" data-entity="Group" data-source-line="343" data-uid="ent0002" id="entity_Group"><path d="M9.5,7 L50.5,7 A3.75,3.75 0 0 1 53,9.5 L60,28 L154.5,28 A2.5,2.5 0 0 1 157,30.5 L157,66.4688 A2.5,2.5 0 0 1 154.5,68.9688 L9.5,68.9688 A2.5,2.5 0 0 1 7,66.4688 L7,9.5 A2.5,2.5 0 0 1 9.5,7" fill="#D3D3D3" filter="url(#fykckloo0bthi)" style="stroke:#181818;stroke-width:0.5;"/><line style="stroke:#181818;stroke-width:0.5;" x1="7" x2="60" y1="28" y2="28"/><text fill="#000000" font-family="Verdana" font-size="12" lengthAdjust="spacing" textLength="36.7969" x="58.6016" y="56.1387">Group</text></g><!--SRC=[AyxEp2j8B4hCLKXAJCvEByelpKjnpi_9Br8eAKhCAmPAfUQLS2bcvYNdbAQaAjWa5YLdPEOcbgJgEy9OTbpkG6q56c1IHq49J2jf0W00]--></g></svg>