<svg xmlns="http://www.w3.org/2000/svg" xmlns:xlink="http://www.w3.org/1999/xlink" contentStyleType="text/css" data-diagram-type="DESCRIPTION" height="73px" preserveAspectRatio="none" style="width:161px;height:73px;background:#FFFFFF;" version="1.1" viewBox="0 0 161 73" width="161px" zoomAndPan="magnify"><defs/><g><!--entity Gap--><g class="entity" data-entity="Gap" data-source-line="323" data-uid="ent0002" id="entity_Gap"><rect fill="#FFE0E0" height="52.9688" rx="0.5" ry="0.5" style="stroke:#181818;stroke-width:0.5;" width="140" x="7" y="7"/><path d="M127.978,21.57 A0.5,0.5 0 0 0 127.9563,21.58 A0.5,0.5 0 0 0 127.9372,21.572 C125.3401,21.6073 123.131,23.2411 122.2368,25.5232 L119.1677,25.5152 A0.5,0.5 0 0 0 118.6654,26.0134 A0.5,0.5 0 0 0 119.1656,26.5151 L121.9396,26.5221 C121.8506,26.9523 121.8065,27.398 121.812,27.8548 C121.8186,28.407 121.8973,28.9422 122.0393,29.4506 L119.1676,29.4426 A0.5,0.5 0 0 0 118.6653,29.9429 A0.5,0.5 0 0 0 119.1656,30.4426 L122.4155,30.4516 C123.4259,32.5634 125.5951,34.0154 128.0854,33.9899 C130.5185,33.965 132.6157,32.5356 133.6127,30.4811 L136.9898,30.4901 A0.5,0.5 0 0 0 137.4916,29.9919 A0.5,0.5 0 0 0 136.9918,29.4901 L133.9946,29.4821 C134.1541,28.9242 134.237,28.335 134.2318,27.7261 C134.2284,27.3252 134.1872,26.9335 134.1109,26.5541 L136.9898,26.5621 A0.5,0.5 0 0 0 137.4916,26.0624 A0.5,0.5 0 0 0 136.9919,25.5622 L133.8195,25.5542 C132.9165,23.2114 130.6324,21.5523 127.978,21.5705 M127.9759,22.5601 A0.5,0.5 0 0 0 127.9857,22.5701 C130.0829,22.5557 131.8949,23.7749 132.7342,25.5508 L123.3203,25.526 C124.1479,23.798 125.9009,22.598 127.9505,22.5701 A0.5,0.5 0 0 0 127.9758,22.5601 M122.9628,26.5247 L133.0868,26.5516 C133.1782,26.9315 133.228,27.3281 133.2315,27.736 C133.2367,28.3468 133.1374,28.9334 132.9499,29.479 L123.0844,29.4532 C122.9136,28.947 122.8182,28.4053 122.8115,27.8414 C122.8061,27.387 122.8587,26.9459 122.9624,26.5247 M123.5467,30.4542 L132.4826,30.478 C131.58,31.9696 129.949,32.9708 128.0736,32.99 C126.1504,33.0096 124.4648,31.9908 123.5467,30.4542" fill="#000000"/><text fill="#000000" font-family="Verdana" font-size="12" lengthAdjust="spacing" textLength="24.2695" x="64.8652" y="47.1387">Gap</text></g><!--SRC=[AyxEp2j8B4hCLKXAJCvEByelpKjnpi_9Br8eAKhCAmPAfUQLS2bcvYNdbAQaAjWa5YLdPEOcbgJgEy9OTboUkGKvgRb0XOabcVbvyUw91Hf0hAEW12ILD040]--></g></svg>