<svg xmlns="http://www.w3.org/2000/svg" xmlns:xlink="http://www.w3.org/1999/xlink" contentStyleType="text/css" data-diagram-type="DESCRIPTION" height="73px" preserveAspectRatio="none" style="width:161px;height:73px;background:#FFFFFF;" version="1.1" viewBox="0 0 161 73" width="161px" zoomAndPan="magnify"><defs/><g><!--entity WorkPackage--><g class="entity" data-entity="WorkPackage" data-source-line="311" data-uid="ent0002" id="entity_WorkPackage"><rect fill="#FFE0E0" height="52.9688" rx="12.5" ry="12.5" style="stroke:#181818;stroke-width:0.5;" width="140" x="7" y="7"/><path d="M126.307,20.68 C126.0453,20.6644 125.7819,20.6652 125.5184,20.683 C124.8159,20.7307 124.1122,20.8997 123.4384,21.1967 C120.7433,22.3845 119.2523,25.3096 119.8738,28.1885 C120.4878,31.0326 123.0001,33.0675 125.9003,33.0874 A0.5,0.5 0 0 0 125.9422,33.0894 L132.5206,33.0894 L132.5206,34.8335 A0.5001,0.5001 0 0 0 133.2745,35.2634 L137.1104,33.0212 A0.5001,0.5001 0 0 0 137.173,32.8688 A0.5,0.5 0 0 0 137.2918,32.8357 A0.5,0.5 0 0 0 137.2489,32.6812 A0.5001,0.5001 0 0 0 137.1477,32.3101 A0.5,0.5 0 0 0 137.1042,32.1541 L133.2683,29.9666 A0.5001,0.5001 0 0 0 132.5206,30.4001 L132.5206,32.0894 L126.0455,32.0894 A0.5,0.5 0 0 0 125.9954,32.0874 C123.5191,32.1125 121.3731,30.3988 120.8505,27.9781 C120.3279,25.5574 121.5764,23.11 123.8426,22.1113 C126.1087,21.1126 128.7565,21.8441 130.1905,23.8631 C131.6245,25.8821 131.4422,28.6225 129.7528,30.4332 A0.5,0.5 0 0 0 129.7765,31.1402 A0.5,0.5 0 0 0 130.4835,31.1149 C132.4927,28.9614 132.7124,25.684 131.0069,23.2828 C129.8877,21.707 128.1386,20.7895 126.3069,20.6804" fill="#000000"/><text fill="#000000" font-family="Verdana" font-size="12" lengthAdjust="spacing" textLength="81.5801" x="36.21" y="47.1387">WorkPackage</text></g><!--SRC=[AyxEp2j8B4hCLKXAJCvEByelpKjnpi_9Br8eAKhCAmPAfUQLS2bcvYNdbAQaAjWa5YLdPEOcbgJgEy9OTboUkGKvgRb0XOabcVbvyU7vHTa1GDCIqrCraDWw2af8F2LD0000]--></g></svg>