<svg xmlns="http://www.w3.org/2000/svg" xmlns:xlink="http://www.w3.org/1999/xlink" contentStyleType="text/css" data-diagram-type="DESCRIPTION" height="73px" preserveAspectRatio="none" style="width:161px;height:73px;background:#FFFFFF;" version="1.1" viewBox="0 0 161 73" width="161px" zoomAndPan="magnify"><defs/><g><!--entity Deliverable--><g class="entity" data-entity="Deliverable" data-source-line="314" data-uid="ent0002" id="entity_Deliverable"><rect fill="#FFE0E0" height="52.9688" rx="0.5" ry="0.5" style="stroke:#181818;stroke-width:0.5;" width="140" x="7" y="7"/><path d="M119.045,20.28 A0.5001,0.5001 0 0 0 118.545,20.78 L118.545,32.987 A0.5001,0.5001 0 0 0 118.7462,33.3894 C120.6175,34.7844 122.1129,35.3007 123.3985,35.198 C124.6841,35.0952 125.6645,34.3738 126.502,33.5496 C127.3395,32.7252 128.0727,31.7796 128.8809,31.077 C129.6891,30.3744 130.5288,29.9147 131.6758,29.9481 C133.1092,29.9897 134.0038,30.4532 134.7461,31.0907 C135.4884,31.7281 136.0564,32.5631 136.7246,33.3192 A0.5001,0.5001 0 0 0 137.5996,32.9891 C137.6026,30.5405 137.5996,20.7801 137.5996,20.7801 A0.5001,0.5001 0 0 0 137.0996,20.2801 M119.545,21.28 L136.6,21.28 C136.6002,21.9368 136.6015,28.4268 136.6,31.678 C136.2242,31.2165 135.9046,30.7646 135.3988,30.3303 C134.5256,29.5805 133.3526,28.9953 131.7054,28.9475 C130.2652,28.9057 129.1375,29.5271 128.2249,30.3205 C127.3123,31.114 126.5698,32.0795 125.8011,32.8361 C125.0324,33.5927 124.2768,34.1228 123.3187,34.1994 C122.4027,34.2726 121.1874,33.8811 119.5453,32.7033" fill="#000000"/><text fill="#000000" font-family="Verdana" font-size="12" lengthAdjust="spacing" textLength="68.3965" x="42.8018" y="47.1387">Deliverable</text></g><!--SRC=[JOen2e0m301tNr6T50G_88BeuYiahK53qrHYw_jr4TpkkBiyoGaAmLXmVjUOPPiYHpL9GQuteQIY976SDpGzg3ieGC9k_6Webd0oXdU4H57M6PbkLB2CzOzRK_siQXu0]--></g></svg>