<svg xmlns="http://www.w3.org/2000/svg" xmlns:xlink="http://www.w3.org/1999/xlink" contentStyleType="text/css" data-diagram-type="DESCRIPTION" height="73px" preserveAspectRatio="none" style="width:161px;height:73px;background:#FFFFFF;" version="1.1" viewBox="0 0 161 73" width="161px" zoomAndPan="magnify"><defs/><g><!--entity Goal--><g class="entity" data-entity="Goal" data-source-line="280" data-uid="ent0002" id="entity_Goal"><path d="M19,7 L135,7 L147,19 L147,47.9688 L135,59.9688 L19,59.9688 L7,47.9688 L7,19 L19,7" fill="#CCCCFF" style="stroke:#181818;stroke-width:0.5;"/><path d="M128.025,20.754 A0.5,0.5 0 0 0 128.0038,20.7638 A0.5,0.5 0 0 0 127.9842,20.756 C124.565,20.8025 121.8182,23.62 121.859,27.0393 C121.8997,30.4586 124.7111,33.2088 128.1305,33.1738 C131.5499,33.1388 134.3066,30.3316 134.2774,26.9122 C134.2482,23.4928 131.4446,20.7305 128.0251,20.7539 M128.0234,21.7441 A0.5,0.5 0 0 0 128.0327,21.7539 C130.9124,21.7342 133.2528,24.0404 133.2773,26.92 C133.3019,29.7996 131.0006,32.1445 128.121,32.1739 C125.2414,32.2034 122.8936,29.907 122.8593,27.0274 C122.825,24.1479 125.118,21.7951 127.9975,21.7559 A0.5,0.5 0 0 0 128.0233,21.744 M128.0151,23.096 C125.8867,23.125 124.1734,24.8815 124.1988,27.01 C124.2242,29.1385 125.9786,30.8558 128.1071,30.8341 C130.2356,30.8124 131.9555,29.0606 131.9374,26.932 C131.9192,24.8035 130.1696,23.0815 128.041,23.0961 A0.5,0.5 0 0 0 128.0291,23.1075 A0.5,0.5 0 0 0 128.0152,23.0961 M128.0425,24.0898 A0.5,0.5 0 0 0 128.0487,24.096 C129.6374,24.0851 130.9239,25.351 130.9374,26.9398 C130.9509,28.5285 129.686,29.818 128.0973,29.8342 C126.5086,29.8504 125.2177,28.5869 125.1988,26.9982 C125.1799,25.4095 126.4405,24.1177 128.0291,24.0961 A0.5,0.5 0 0 0 128.0425,24.0899 M128.0446,25.2773 C127.1253,25.2898 126.3697,26.0654 126.3806,26.9847 C126.3916,27.904 127.1666,28.6617 128.0859,28.6523 C129.0052,28.6429 129.7634,27.8689 129.7556,26.9496 C129.7478,26.0302 128.9758,25.2711 128.0565,25.2774 A0.959,0.959 0 0 0 128.0503,25.2836 A0.959,0.959 0 0 0 128.0446,25.2774" fill="#000000"/><text fill="#000000" font-family="Verdana" font-size="12" lengthAdjust="spacing" textLength="27.3281" x="63.3359" y="47.1387">Goal</text></g><!--SRC=[AyxEp2j8B4hCLKXAJCvEByelpKjnpi_9Br8eAKhCAmPAfUQLS2bcvYNdbAQaAjWa5YLdPEOcbgJgEy9OTbo- -IMPPOabcVbvyUxvYJaQ8497GGb4AMa20000]--></g></svg>