<svg xmlns="http://www.w3.org/2000/svg" xmlns:xlink="http://www.w3.org/1999/xlink" contentStyleType="text/css" data-diagram-type="DESCRIPTION" height="73px" preserveAspectRatio="none" style="width:161px;height:73px;background:#FFFFFF;" version="1.1" viewBox="0 0 161 73" width="161px" zoomAndPan="magnify"><defs/><g><!--entity Meaning--><g class="entity" data-entity="Meaning" data-source-line="298" data-uid="ent0002" id="entity_Meaning"><path d="M19,7 L135,7 L147,19 L147,47.9688 L135,59.9688 L19,59.9688 L7,47.9688 L7,19 L19,7" fill="#CCCCFF" style="stroke:#181818;stroke-width:0.5;"/><path d="M125.1,20.468 C124.1651,20.4479 123.005,20.6725 122.2154,21.5682 C121.7379,22.1098 121.7558,22.8168 121.9715,23.3066 C122.0705,23.5314 122.1976,23.6413 122.3265,23.8161 C121.9535,23.8962 121.5351,23.9132 121.2465,24.121 C120.5719,24.6067 120.2549,25.4206 120.2212,26.2501 C120.1875,27.0796 120.4311,27.9578 120.9731,28.668 C121.5278,29.3949 122.2472,29.6979 122.8991,29.6659 C123.3737,29.6426 123.7358,29.4166 124.1021,29.2189 C124.2598,29.5489 124.3639,29.9293 124.6374,30.1248 C125.0737,30.4365 125.5911,30.5858 126.0885,30.5646 C126.567,30.5441 127.2424,30.5539 127.9147,30.3749 C128.3626,30.2557 128.7824,29.97 129.1431,29.5899 C129.3218,29.9081 129.4491,30.291 129.7447,30.4901 C130.2532,30.8327 130.8915,30.9139 131.7663,30.8948 C132.7076,30.8742 133.4193,30.7737 133.8855,30.2674 C134.1186,30.0143 134.2345,29.6684 134.2446,29.3223 C134.2506,29.1295 134.1772,28.9088 134.1351,28.7011 C134.641,28.6285 135.1627,28.5744 135.5882,28.2908 C136.179,27.897 136.6298,27.2408 136.6527,26.4217 C136.699,24.767 136.2656,23.3921 135.4047,22.4101 C134.7166,21.6252 133.8708,21.1864 133.0023,21.221 C132.3186,21.2482 131.6902,21.6349 131.1275,22.1858 C130.914,21.8445 130.7276,21.4408 130.4438,21.2618 C129.9927,20.9774 129.4672,20.9358 129.0124,21.0546 C128.3781,21.2202 127.8822,21.6566 127.4616,22.1424 C127.3415,21.8926 127.251,21.6454 127.0766,21.4081 C126.7402,20.9505 126.2054,20.5586 125.485,20.4903 C125.3623,20.4787 125.2336,20.471 125.1,20.4681 M125.0866,21.47 C125.1916,21.4715 125.2939,21.4773 125.3915,21.4865 C125.8373,21.5288 126.0451,21.6943 126.27,22.0002 C126.4949,22.3061 126.6828,22.7652 126.9149,23.2539 A0.5001,0.5001 0 0 0 127.7934,23.2989 C128.1384,22.7306 128.7737,22.1516 129.2641,22.0235 C129.5093,21.9594 129.6984,21.9754 129.9106,22.1092 C130.1228,22.243 130.3754,22.5326 130.6005,23.0994 A0.5001,0.5001 0 0 0 131.4635,23.2167 C131.9833,22.5296 132.5286,22.2413 133.0417,22.2209 C133.5548,22.2004 134.106,22.4445 134.653,23.0684 C135.32,23.8293 135.6961,24.9267 135.655,26.3943 C135.6413,26.8837 135.4169,27.2035 135.0338,27.4588 C134.6507,27.7141 134.1008,27.8602 133.5729,27.8592 A0.5001,0.5001 0 0 0 133.0964,28.5114 C133.2071,28.857 133.2497,29.1241 133.2448,29.2948 C133.2398,29.4656 133.2085,29.5277 133.1513,29.5899 C133.0368,29.7142 132.5981,29.8756 131.7452,29.8943 C130.9479,29.9117 130.5424,29.8212 130.3034,29.6602 C130.0644,29.4992 129.8808,29.1993 129.6434,28.5822 A0.5001,0.5001 0 0 0 128.7153,28.5662 C128.4999,29.073 128.1489,29.279 127.657,29.41 C127.1651,29.541 126.567,29.5423 126.0457,29.5645 C125.7903,29.5755 125.4631,29.4844 125.2194,29.3103 C124.9757,29.1362 124.8121,28.9069 124.7781,28.578 A0.5001,0.5001 0 0 0 124.0123,28.207 C123.6298,28.4518 123.2074,28.6483 122.8506,28.6659 C122.4937,28.6834 122.1729,28.5902 121.7685,28.0602 C121.384,27.5565 121.1953,26.888 121.2197,26.2887 C121.244,25.6894 121.4742,25.1912 121.8325,24.9332 C122.0652,24.7657 122.5298,24.6344 123.159,24.5958 A0.5001,0.5001 0 0 0 123.5125,23.7752 C123.2848,23.5035 123.0095,23.1816 122.8872,22.9039 C122.7649,22.6262 122.7315,22.4942 122.9658,22.2285 C123.4739,21.6522 124.3517,21.4594 125.0866,21.4699 M122.7565,30.0643 C122.0098,30.0697 121.3321,30.2279 120.8016,30.5175 C120.271,30.8071 119.8324,31.28 119.8461,31.8926 C119.8598,32.5052 120.3106,32.9595 120.8502,33.2403 C121.3899,33.5211 122.0743,33.6717 122.8211,33.6677 C123.5679,33.6636 124.2462,33.507 124.7781,33.2186 C125.31,32.9302 125.7507,32.4603 125.7409,31.8476 C125.7309,31.2349 125.2813,30.7778 124.743,30.4957 C124.2046,30.2136 123.521,30.0615 122.7741,30.0642 A0.5,0.5 0 0 0 122.7622,30.0704 A0.5,0.5 0 0 0 122.7562,30.0642 M122.7741,31.0606 A0.5,0.5 0 0 0 122.7781,31.0642 C123.3813,31.062 123.9245,31.1959 124.2777,31.381 C124.631,31.5661 124.739,31.7575 124.7407,31.8631 C124.7427,31.9688 124.6461,32.1512 124.3015,32.3381 C123.9568,32.5249 123.4184,32.6645 122.8153,32.6678 C122.2121,32.6711 121.6681,32.5383 121.3131,32.3536 C120.9581,32.1688 120.8467,31.9766 120.8444,31.8709 C120.8424,31.7652 120.9371,31.5837 121.28,31.3965 C121.6229,31.2093 122.1595,31.0686 122.7626,31.0642 A0.5,0.5 0 0 0 122.774,31.0606 M120.4419,33.6677 C119.6787,33.6772 119.0081,34.267 119.0182,35.0351 C119.0284,35.8033 119.7116,36.3764 120.475,36.3694 C121.2383,36.3624 121.9101,35.7738 121.9028,35.0057 C121.8958,34.2376 121.2151,33.6631 120.4517,33.6678 A0.5,0.5 0 0 0 120.4477,33.6719 A0.5,0.5 0 0 0 120.4417,33.6678 M120.4538,34.6682 A0.5,0.5 0 0 0 120.4558,34.6682 A0.5,0.5 0 0 0 120.4578,34.6682 C120.7343,34.6665 120.9011,34.8459 120.9027,35.0155 C120.9047,35.185 120.7421,35.3664 120.4656,35.369 C120.1891,35.3715 120.0203,35.1913 120.018,35.0217 C120.016,34.8521 120.1772,34.6716 120.4537,34.6682" fill="#000000"/><text fill="#000000" font-family="Verdana" font-size="12" lengthAdjust="spacing" textLength="51.252" x="51.374" y="47.1387">Meaning</text></g><!--SRC=[DSan2e0m343HlQUeJWg25n11d7i6YMsfePf8Z9vVXphz1__AI2S877O5dvFmJM7cdSMg05tVYgIcGlBx7Q8TGFo61sZifr-ZSQpuW2BJuY8GKcfAEriNrUqB]--></g></svg>