<svg xmlns="http://www.w3.org/2000/svg" xmlns:xlink="http://www.w3.org/1999/xlink" contentStyleType="text/css" data-diagram-type="DESCRIPTION" height="73px" preserveAspectRatio="none" style="width:161px;height:73px;background:#FFFFFF;" version="1.1" viewBox="0 0 161 73" width="161px" zoomAndPan="magnify"><defs/><g><!--entity Value--><g class="entity" data-entity="Value" data-source-line="305" data-uid="ent0002" id="entity_Value"><path d="M19,7 L135,7 L147,19 L147,47.9688 L135,59.9688 L19,59.9688 L7,47.9688 L7,19 L19,7" fill="#CCCCFF" style="stroke:#181818;stroke-width:0.5;"/><path d="M127.93,21.462 C125.5143,21.4817 123.3322,22.0792 121.7247,23.0655 C120.1172,24.0518 119.0496,25.4746 119.082,27.0968 C119.1143,28.719 120.2321,30.1162 121.8751,31.0774 C123.5181,32.0386 125.723,32.6037 128.1388,32.5889 C130.5546,32.5741 132.7393,31.9821 134.3519,30.9993 C135.9645,30.0165 137.0369,28.598 137.0138,26.9758 C136.9906,25.3536 135.8804,23.9522 134.2424,22.9874 C132.6044,22.0226 130.4044,21.452 127.9885,21.4619 A0.5,0.5 0 0 0 127.959,21.4914 A0.5,0.5 0 0 0 127.9301,21.4619 M127.9651,22.4506 A0.5,0.5 0 0 0 127.9925,22.4625 C130.2469,22.4533 132.2877,22.9969 133.7343,23.849 C135.1809,24.701 135.997,25.8188 136.0137,26.9899 C136.0304,28.161 135.2501,29.2806 133.8304,30.1458 C132.4107,31.011 130.3854,31.5753 128.131,31.5891 C125.8766,31.6028 123.8328,31.0638 122.381,30.2145 C120.9292,29.3651 120.1058,28.2488 120.0824,27.0777 C120.0591,25.9066 120.8317,24.785 122.2461,23.9172 C123.6605,23.0493 125.6835,22.4809 127.9377,22.4625 A0.5,0.5 0 0 0 127.9651,22.4506" fill="#000000"/><text fill="#000000" font-family="Verdana" font-size="12" lengthAdjust="spacing" textLength="33.8848" x="60.0576" y="47.1387">Value</text></g><!--SRC=[AyxEp2j8B4hCLKXAJCvEByelpKjnpi_9Br8eAKhCAmPAfUQLS2bcvYNdbAQaAjWa5YLdPEOcbgJgEy9OTbo- -IMPPOabcVbvyM69EQMf6c1IHq49J2jf0W00]--></g></svg>