<svg xmlns="http://www.w3.org/2000/svg" xmlns:xlink="http://www.w3.org/1999/xlink" contentStyleType="text/css" data-diagram-type="DESCRIPTION" height="74px" preserveAspectRatio="none" style="width:161px;height:74px;background:#FFFFFF;" version="1.1" viewBox="0 0 161 74" width="161px" zoomAndPan="magnify"><defs/><g><!--entity Driver--><g class="entity" data-entity="Driver" data-source-line="274" data-uid="ent0002" id="entity_Driver"><path d="M19,7 L135,7 L147,19 L147,48.9688 L135,60.9688 L19,60.9688 L7,48.9688 L7,19 L19,7" fill="#CCCCFF" style="stroke:#181818;stroke-width:0.5;"/><path d="M128.061,17.443 A0.5,0.5 0 0 0 127.5608,17.9432 L127.5608,20.4226 C126.1252,20.515 124.8172,21.0784 123.7884,21.9579 L122.0547,20.2242 A0.5,0.5 0 0 0 121.7012,20.078 A0.5,0.5 0 0 0 121.3477,20.2242 A0.5,0.5 0 0 0 121.3477,20.9312 L123.0804,22.6639 C122.195,23.6938 121.6283,25.0041 121.5332,26.4373 L119.0667,26.4373 A0.5,0.5 0 0 0 118.5665,26.937 A0.5,0.5 0 0 0 119.0667,27.4372 L121.5441,27.4372 C121.6687,28.854 122.2532,30.1397 123.145,31.146 L121.3828,32.9076 L121.342,32.9489 A0.5001,0.5001 0 0 0 122.0489,33.6559 L122.051,33.6559 L122.0903,33.6151 L123.8638,31.8416 C124.8828,32.6864 126.1633,33.2249 127.5607,33.3149 L127.5607,35.937 A0.5001,0.5001 0 0 0 128.5607,35.937 L128.5607,33.302 C129.9382,33.1782 131.1912,32.6198 132.1832,31.7667 L134.0725,33.656 A0.5001,0.5001 0 0 0 134.7794,32.949 L134.7386,32.9077 L132.8891,31.0587 C133.7388,30.0642 134.2926,28.8106 134.413,27.4372 L137.0624,27.4372 A0.5001,0.5001 0 0 0 137.0624,26.4372 L134.4233,26.4372 C134.3305,25.0429 133.7926,23.7681 132.9521,22.7542 L134.7758,20.9311 A0.5,0.5 0 0 0 134.7758,20.2242 A0.5,0.5 0 0 0 134.0668,20.2242 L132.2555,22.0349 C131.2509,21.145 129.9692,20.5624 128.5606,20.4355 L128.5606,17.9431 A0.5,0.5 0 0 0 128.0609,17.4429 M127.5608,21.9264 L127.5608,25.4068 C127.4819,25.4328 127.4053,25.4644 127.3318,25.5014 L124.8472,23.0163 C125.5982,22.406 126.533,22.0114 127.5607,21.9264 M128.5607,21.9434 C129.5623,22.0596 130.472,22.4718 131.1993,23.0916 L128.801,25.4899 C128.7239,25.4527 128.6434,25.4212 128.5607,25.3959 M124.1387,23.7226 L126.6078,26.1912 C126.5634,26.2697 126.5251,26.3521 126.4936,26.4372 L123.0375,26.4372 C123.1249,25.4108 123.5231,24.4743 124.1387,23.7226 M131.8917,23.8146 C132.4648,24.5488 132.8353,25.4504 132.9195,26.4372 L129.6629,26.4372 C129.6285,26.3441 129.5861,26.2544 129.5363,26.1695 M123.0514,27.4371 L126.4465,27.4371 C126.474,27.5398 126.5114,27.6394 126.5571,27.7337 L124.2012,30.0891 C123.5793,29.3596 123.1657,28.4459 123.0514,27.4371 M129.7094,27.4371 L132.9061,27.4371 C132.7969,28.4033 132.4115,29.2845 131.8302,29.9997 L129.5874,27.7569 L129.5874,27.7564 C129.6384,27.6551 129.6796,27.5481 129.7094,27.4371 M127.2377,28.4675 L127.2382,28.4675 C127.3397,28.5268 127.4478,28.5765 127.5607,28.6138 L127.5607,31.811 C126.5701,31.7292 125.663,31.3583 124.9242,30.7816 M128.897,28.4804 L131.1248,30.7083 C130.4113,31.2929 129.53,31.6821 128.5606,31.7944 L128.5606,28.6251 C128.6785,28.5892 128.7912,28.5403 128.897,28.4805" fill="#000000"/><text fill="#000000" font-family="Verdana" font-size="12" lengthAdjust="spacing" textLength="36.9258" x="58.5371" y="48.1387">Driver</text></g><!--SRC=[AyxEp2j8B4hCLKXAJCvEByelpKjnpi_9Br8eAKhCAmPAfUQLS2bcvYNdbAQaAjWa5YLdPEOcbgJgEy9OTbo- -IMPPOabcVbvyIv5cMMfHHeGIaT12S9GqWG0]--></g></svg>