<svg xmlns="http://www.w3.org/2000/svg" xmlns:xlink="http://www.w3.org/1999/xlink" contentStyleType="text/css" data-diagram-type="DESCRIPTION" height="73px" preserveAspectRatio="none" style="width:161px;height:73px;background:#FFFFFF;" version="1.1" viewBox="0 0 161 73" width="161px" zoomAndPan="magnify"><defs/><g><!--entity Outcome--><g class="entity" data-entity="Outcome" data-source-line="283" data-uid="ent0002" id="entity_Outcome"><path d="M19,7 L135,7 L147,19 L147,47.9688 L135,59.9688 L19,59.9688 L7,47.9688 L7,19 L19,7" fill="#CCCCFF" style="stroke:#181818;stroke-width:0.5;"/><path d="M133.23,18.082 A0.5,0.5 0 0 0 132.7298,18.5817 L132.7298,21.3789 L129.3812,24.8903 C128.2997,24.0054 126.9161,23.478 125.4135,23.4883 A0.5,0.5 0 0 0 125.3902,23.4976 A0.5,0.5 0 0 0 125.3706,23.4898 C121.9514,23.5364 119.2046,26.3538 119.2454,29.7731 C119.2861,33.1924 122.0995,35.9431 125.5189,35.9081 C128.9383,35.8731 131.6945,33.0654 131.6653,29.6459 C131.652,28.0877 131.0628,26.6664 130.1016,25.5826 L133.444,22.0779 L136.1167,22.0779 A0.5,0.5 0 0 0 136.6164,21.5777 A0.5,0.5 0 0 0 136.1167,21.078 L133.7298,21.078 L133.7298,18.5815 A0.5,0.5 0 0 0 133.2301,18.0818 M125.4093,24.4785 L125.4098,24.4785 A0.5,0.5 0 0 0 125.4198,24.4883 C126.6573,24.4798 127.7953,24.9007 128.693,25.6123 L127.7582,26.5926 C127.2419,26.2086 126.6274,25.9505 125.9609,25.8629 A0.5,0.5 0 0 0 125.517,25.5782 A0.5,0.5 0 0 0 125.0648,25.849 C123.0956,26.0474 121.5614,27.729 121.5854,29.7439 C121.6108,31.8724 123.3672,33.5902 125.4958,33.5685 C127.4769,33.5482 129.1018,32.0291 129.3028,30.1026 A0.5,0.5 0 0 0 129.5075,29.699 A0.5,0.5 0 0 0 129.5025,29.6323 A0.5,0.5 0 0 0 129.3025,29.2959 C129.2238,28.5411 128.9268,27.8501 128.4767,27.2872 L129.4126,26.3054 C130.1845,27.2052 130.6543,28.3731 130.6652,29.6545 C130.6898,32.5341 128.3885,34.8785 125.5089,34.9079 C122.6293,34.9373 120.28,32.641 120.2457,29.7614 C120.2114,26.8819 122.505,24.5291 125.3844,24.4899 A0.5,0.5 0 0 0 125.4092,24.4785 M124.9969,26.866 L124.9757,28.2313 A0.959,0.959 0 0 0 124.9752,28.2313 A0.959,0.959 0 0 0 124.7825,28.3279 C124.2232,28.6105 123.7768,29.086 123.7846,29.7459 C123.7956,30.6652 124.5701,31.4213 125.4894,31.4119 C126.2397,31.4042 126.883,30.8883 127.0898,30.1991 L128.2809,30.1991 C128.0476,31.5375 126.893,32.5541 125.4837,32.5685 C123.895,32.5848 122.6046,31.3212 122.5857,29.7325 C122.5685,28.2863 123.6114,27.086 124.9969,26.866 M125.9969,26.8805 C126.3868,26.9542 126.7482,27.1065 127.0645,27.3202 L126.2118,28.2137 C126.1366,28.1763 126.0585,28.1441 125.9777,28.1181 M127.7828,28.0158 C128.0313,28.3598 128.205,28.762 128.2809,29.1992 L127.0732,29.1992 C127.0381,29.0949 126.9928,28.9949 126.9389,28.9005" fill="#000000"/><text fill="#000000" font-family="Verdana" font-size="12" lengthAdjust="spacing" textLength="54.7676" x="49.6162" y="47.1387">Outcome</text></g><!--SRC=[AyxEp2j8B4hCLKXAJCvEByelpKjnpi_9Br8eAKhCAmPAfUQLS2bcvYNdbAQaAjWa5YLdPEOcbgJgEy9OTbo- -IMPPOabcVbvyVwb9SdvkQaQK5f7GGdAKj840000]--></g></svg>