<svg xmlns="http://www.w3.org/2000/svg" xmlns:xlink="http://www.w3.org/1999/xlink" contentStyleType="text/css" data-diagram-type="DESCRIPTION" height="73px" preserveAspectRatio="none" style="width:161px;height:73px;background:#FFFFFF;" version="1.1" viewBox="0 0 161 73" width="161px" zoomAndPan="magnify"><defs/><g><!--entity Assessment--><g class="entity" data-entity="Assessment" data-source-line="277" data-uid="ent0002" id="entity_Assessment"><path d="M19,7 L135,7 L147,19 L147,47.9688 L135,59.9688 L19,59.9688 L7,47.9688 L7,19 L19,7" fill="#CCCCFF" style="stroke:#181818;stroke-width:0.5;"/><path d="M131.573,18.791 C128.9045,18.8273 126.7601,21.0288 126.7919,23.6972 C126.8075,25.0067 127.344,26.1908 128.2021,27.0541 L121.8133,33.4434 A0.5,0.5 0 0 0 121.8133,34.1503 A0.5,0.5 0 0 0 122.5202,34.1503 L128.9803,27.6902 C129.7578,28.2022 130.6899,28.4963 131.6881,28.4861 C134.3567,28.4588 136.5095,26.266 136.4868,23.5975 C136.4641,20.929 134.2746,18.7728 131.606,18.7911 A0.5,0.5 0 0 0 131.5905,18.7968 A0.5,0.5 0 0 0 131.573,18.7911 M131.604,19.7832 L131.6045,19.7832 A0.5,0.5 0 0 0 131.6123,19.791 C133.7411,19.7764 135.4688,21.4766 135.487,23.6052 C135.5052,25.7338 133.8072,27.4643 131.6784,27.4861 C130.7727,27.4954 129.9388,27.1942 129.2775,26.681 A0.5,0.5 0 0 0 129.1959,26.6159 C128.3494,25.9213 127.806,24.8706 127.7919,23.6853 C127.7665,21.5568 129.4578,19.8199 131.5865,19.791 A0.5,0.5 0 0 0 131.604,19.7832" fill="#000000"/><text fill="#000000" font-family="Verdana" font-size="12" lengthAdjust="spacing" textLength="71.9824" x="41.0088" y="47.1387">Assessment</text></g><!--SRC=[HOin2e0m301tNr6T50G_849nzWqIQz5GcqWIVRykudR7SPgGJX38Re6GDk6Brf4F5cS2f6-AP4M958vhZQu72JjciDZvZuPYOiCR39bchnfLyplLFxQk-gLg7W00]--></g></svg>