<svg xmlns="http://www.w3.org/2000/svg" xmlns:xlink="http://www.w3.org/1999/xlink" contentStyleType="text/css" data-diagram-type="DESCRIPTION" height="73px" preserveAspectRatio="none" style="width:161px;height:73px;background:#FFFFFF;" version="1.1" viewBox="0 0 161 73" width="161px" zoomAndPan="magnify"><defs/><g><!--entity Requirement--><g class="entity" data-entity="Requirement" data-source-line="289" data-uid="ent0002" id="entity_Requirement"><path d="M19,7 L135,7 L147,19 L147,47.9688 L135,59.9688 L19,59.9688 L7,47.9688 L7,19 L19,7" fill="#CCCCFF" style="stroke:#181818;stroke-width:0.5;"/><path d="M123.1,23.545 A0.5001,0.5001 0 0 0 122.6527,23.8223 L118.6879,31.7871 A0.5001,0.5001 0 0 0 119.1372,32.5098 C123.7776,32.4962 128.4131,32.5615 133.0672,32.5157 A0.5001,0.5001 0 0 0 133.5105,32.2384 L137.4734,24.2677 A0.5001,0.5001 0 0 0 137.0262,23.545 M123.4086,24.545 L136.2196,24.545 L132.7528,31.5157 C128.4859,31.5534 124.2201,31.5051 119.9418,31.5098" fill="#000000"/><text fill="#000000" font-family="Verdana" font-size="12" lengthAdjust="spacing" textLength="77.9766" x="38.0117" y="47.1387">Requirement</text></g><!--SRC=[JOj13a10303lNh6SI2G-819nTl41gTNGi2tLzNuk4hUPJERQY0zG26u2loqgaUTETb5d2doz2TcIbDZlSKPNW_gL0XXMxKTDqelH3KR2uu1d9CNmNlcFIvVzB2iU]--></g></svg>