<svg xmlns="http://www.w3.org/2000/svg" xmlns:xlink="http://www.w3.org/1999/xlink" contentStyleType="text/css" data-diagram-type="DESCRIPTION" height="73px" preserveAspectRatio="none" style="width:161px;height:73px;background:#FFFFFF;" version="1.1" viewBox="0 0 161 73" width="161px" zoomAndPan="magnify"><defs/><g><!--entity Constraint--><g class="entity" data-entity="Constraint" data-source-line="292" data-uid="ent0002" id="entity_Constraint"><path d="M19,7 L135,7 L147,19 L147,47.9688 L135,59.9688 L19,59.9688 L7,47.9688 L7,19 L19,7" fill="#CCCCFF" style="stroke:#181818;stroke-width:0.5;"/><path d="M123.15,23.545 A0.5001,0.5001 0 0 0 122.7025,23.8225 L118.7379,31.7874 A0.5001,0.5001 0 0 0 119.187,32.5098 C123.8274,32.4962 128.4626,32.5619 133.116,32.516 A0.5001,0.5001 0 0 0 133.5593,32.2385 L137.5244,24.2679 A0.5001,0.5001 0 0 0 137.0769,23.545 M123.4601,24.5449 L125.2801,24.5449 L121.7801,31.5104 C121.1848,31.5094 120.5894,31.5092 119.9937,31.5099 M126.3979,24.5449 L136.2691,24.5449 L132.8042,31.5155 C129.5027,31.5447 126.2026,31.5223 122.8968,31.5129" fill="#000000"/><text fill="#000000" font-family="Verdana" font-size="12" lengthAdjust="spacing" textLength="62.2148" x="45.8926" y="47.1387">Constraint</text></g><!--SRC=[HOin2e0m301tNr4xAGX-G0HnzWqIQz7GDf4qzVswYDiTn-M0T850CXkuS0WNscUEB4O5AB_9arOraejbzsO0SIScKDzF7utLmeetA3AjCrD-JoHjVkoC_SMs3m00]--></g></svg>