<svg xmlns="http://www.w3.org/2000/svg" xmlns:xlink="http://www.w3.org/1999/xlink" contentStyleType="text/css" data-diagram-type="DESCRIPTION" height="73px" preserveAspectRatio="none" style="width:161px;height:73px;background:#FFFFFF;" version="1.1" viewBox="0 0 161 73" width="161px" zoomAndPan="magnify"><defs/><g><!--entity Principle--><g class="entity" data-entity="Principle" data-source-line="286" data-uid="ent0002" id="entity_Principle"><path d="M19,7 L135,7 L147,19 L147,47.9688 L135,59.9688 L19,59.9688 L7,47.9688 L7,19 L19,7" fill="#CCCCFF" style="stroke:#181818;stroke-width:0.5;"/><path d="M128.04,20.367 C126.3983,20.371 124.7553,20.4398 123.4361,20.5722 C122.7765,20.6383 122.199,20.7197 121.7329,20.8218 C121.4003,20.8946 121.1772,21.0153 120.9402,21.1422 L120.7645,21.1422 L120.6219,21.2713 C120.3417,21.5254 120.2336,21.8408 120.1237,22.2263 C120.0138,22.6118 119.9326,23.0732 119.8679,23.5952 C119.7384,24.6393 119.6833,25.9215 119.6922,27.2048 C119.7012,28.4881 119.7736,29.7682 119.9072,30.8103 C119.9739,31.3313 120.0552,31.792 120.1568,32.1735 C120.2584,32.555 120.3479,32.8543 120.5945,33.1151 C120.8998,33.4381 121.2254,33.4785 121.6787,33.574 C122.1319,33.6694 122.7001,33.7436 123.3525,33.8024 C124.6573,33.9199 126.2991,33.9744 127.9424,33.9703 C129.5858,33.9662 131.2262,33.9022 132.5282,33.7827 C133.1791,33.723 133.7442,33.6505 134.1942,33.5584 C134.6443,33.4664 134.9581,33.435 135.2686,33.1249 C135.5266,32.867 135.6248,32.5604 135.7311,32.1776 C135.8373,31.7949 135.9214,31.3354 135.9889,30.8159 C136.1239,29.777 136.1937,28.5023 136.2018,27.2244 C136.2098,25.9465 136.1558,24.6691 136.038,23.6267 C135.9791,23.1055 135.9039,22.6437 135.8076,22.2593 C135.7112,21.875 135.6227,21.5732 135.3854,21.3085 C135.0913,20.9805 134.7501,20.9144 134.294,20.8083 C133.8378,20.7021 133.2715,20.6198 132.6202,20.5545 C131.3175,20.4239 129.6818,20.363 128.0401,20.3669 M128.044,21.3669 C129.6593,21.363 131.2708,21.4251 132.5207,21.5504 C133.1457,21.6131 133.6805,21.6929 134.0674,21.7829 C134.3944,21.859 134.6193,21.9876 134.6472,21.9881 L134.6482,21.9881 L134.6488,21.9876 C134.6754,22.0388 134.7712,22.2336 134.8389,22.5038 C134.9184,22.821 134.9884,23.2476 135.0441,23.7399 C135.1554,24.7246 135.2101,25.9728 135.2022,27.2182 C135.1942,28.4636 135.1241,29.7091 134.9971,30.6872 C134.9336,31.1763 134.8551,31.5986 134.7686,31.9099 C134.7004,32.1561 134.6086,32.3328 134.5749,32.3941 C134.5453,32.3914 134.3111,32.5147 133.9935,32.5797 C133.6037,32.6594 133.065,32.7313 132.4365,32.7889 C131.1795,32.9043 129.5582,32.9663 127.9386,32.9703 C126.319,32.9743 124.6977,32.9197 123.4407,32.8065 C122.8122,32.7499 122.2746,32.677 121.8857,32.5951 C121.5688,32.5284 121.3422,32.4047 121.3111,32.4055 C121.2803,32.3446 121.19,32.1634 121.124,31.9156 C121.0403,31.6013 120.9628,31.1753 120.8997,30.6831 C120.7736,29.6987 120.7012,28.4468 120.6925,27.197 C120.6835,25.9472 120.7391,24.6971 120.8604,23.7187 C120.9211,23.2295 120.9997,22.8071 121.0873,22.4997 C121.167,22.2202 121.2789,22.0398 121.293,22.0145 C121.3095,22.0143 121.5732,21.8802 121.9467,21.7985 C122.3516,21.7098 122.9009,21.6317 123.5363,21.568 C124.8071,21.4405 126.4287,21.3709 128.044,21.367 M126.8446,22.6521 A0.5001,0.5001 0 0 0 126.3568,23.2557 L127.458,28.5019 A0.5001,0.5001 0 0 0 128.4404,28.4802 L129.3194,23.234 A0.5001,0.5001 0 0 0 128.8274,22.6521 M127.9345,30.0956 C127.4553,30.1022 127.0617,30.5067 127.0674,30.986 C127.0734,31.4654 127.4769,31.8601 127.9562,31.8552 C128.4355,31.8503 128.8316,31.4478 128.8275,30.9685 C128.8245,30.6241 128.5849,30.381 128.29,30.2398 A0.5,0.5 0 0 0 128.1572,30.1856 C128.0799,30.1634 128.0244,30.0951 127.9407,30.0956 A0.5,0.5 0 0 0 127.9387,30.0977 A0.5,0.5 0 0 0 127.9347,30.0956" fill="#000000"/><text fill="#000000" font-family="Verdana" font-size="12" lengthAdjust="spacing" textLength="51.375" x="51.3125" y="47.1387">Principle</text></g><!--SRC=[AyxEp2j8B4hCLKXAJCvEByelpKjnpi_9Br8eAKhCAmPAfUQLS2bcvYNdbAQaAjWa5YLdPEOcbgJgEy9OTbo- -IMPPOabcVbvyG55GAMP1Jcf6d2MZe8IdAsa2G00]--></g></svg>