<svg xmlns="http://www.w3.org/2000/svg" xmlns:xlink="http://www.w3.org/1999/xlink" contentStyleType="text/css" data-diagram-type="DESCRIPTION" height="73px" preserveAspectRatio="none" style="width:161px;height:73px;background:#FFFFFF;" version="1.1" viewBox="0 0 161 73" width="161px" zoomAndPan="magnify"><defs/><g><!--entity Grouping--><g class="entity" data-entity="Grouping" data-source-line="331" data-uid="ent0002" id="entity_Grouping"><rect fill="none" height="52.9688" rx="0.5" ry="0.5" style="stroke:#181818;stroke-width:0.5;" width="140" x="7" y="7"/><path d="M120.86,21.506 A0.4,0.4 0 0 0 120.46,21.9065 A0.4,0.4 0 0 0 120.86,22.307 L122.4599,22.307 A0.4,0.4 0 0 0 122.8604,21.9065 A0.4,0.4 0 0 0 122.4599,21.506 M124.0614,21.506 A0.4,0.4 0 0 0 123.6609,21.9065 A0.4,0.4 0 0 0 124.0614,22.307 L125.6613,22.307 A0.4,0.4 0 0 0 126.0613,21.9065 A0.4,0.4 0 0 0 125.6613,21.506 M127.2607,21.506 A0.4,0.4 0 0 0 126.8602,21.9065 A0.4,0.4 0 0 0 127.2607,22.307 L128.8601,22.307 A0.4,0.4 0 0 0 129.2606,21.9065 A0.4,0.4 0 0 0 128.8601,21.506 M130.46,21.506 A0.4,0.4 0 0 0 130.0616,21.9065 A0.4,0.4 0 0 0 130.46,22.307 L132.0615,22.307 A0.4,0.4 0 0 0 132.4599,21.9065 A0.4,0.4 0 0 0 132.0615,21.506 M133.5456,21.6212 A0.4,0.4 0 0 0 133.1456,22.0217 L133.1456,23.6211 A0.4,0.4 0 0 0 133.5456,24.0216 A0.4,0.4 0 0 0 133.9461,23.6211 L133.9461,22.0217 A0.4,0.4 0 0 0 133.5456,21.6212 M119.4556,21.7013 A0.4,0.4 0 0 0 119.0551,22.1018 L119.0551,23.7012 A0.4,0.4 0 0 0 119.4556,24.1017 A0.4,0.4 0 0 0 119.8561,23.7012 L119.8561,22.1018 A0.4,0.4 0 0 0 119.4556,21.7013 M119.053,24.5802 L119.061,25.7698 A0.4,0.4 0 0 0 119.4652,26.1662 A0.4,0.4 0 0 0 119.862,25.7636 L119.86,25.3812 L120.2698,25.3827 A0.4,0.4 0 0 0 120.6724,24.9843 A0.4,0.4 0 0 0 120.2719,24.5843 M121.8714,24.5859 A0.4,0.4 0 0 0 121.4709,24.9864 A0.4,0.4 0 0 0 121.8714,25.3869 L123.4713,25.389 A0.4,0.4 0 0 0 123.8718,24.9906 A0.4,0.4 0 0 0 123.4729,24.5901 M125.0728,24.5921 A0.4,0.4 0 0 0 124.6724,24.9926 A0.4,0.4 0 0 0 125.0708,25.3926 L126.6707,25.3967 A0.4,0.4 0 0 0 127.0707,24.9962 A0.4,0.4 0 0 0 126.6722,24.5957 M128.2721,24.5999 A0.4,0.4 0 0 0 127.8717,24.9984 A0.4,0.4 0 0 0 128.2701,25.3989 L129.8716,25.4025 A0.4,0.4 0 0 0 130.2721,25.002 A0.4,0.4 0 0 0 129.8716,24.602 M131.4729,24.6056 A0.4,0.4 0 0 0 131.0709,25.0041 A0.4,0.4 0 0 0 131.4714,25.4046 L133.0708,25.4087 A0.4,0.4 0 0 0 133.4713,25.0102 A0.4,0.4 0 0 0 133.0729,24.6077 M134.6722,24.6118 A0.4,0.4 0 0 0 134.2717,25.0103 A0.4,0.4 0 0 0 134.6707,25.4123 L136.2701,25.4144 A0.4,0.4 0 0 0 136.6727,25.016 A0.4,0.4 0 0 0 136.2722,24.6155 M136.4261,26.0649 A0.4,0.4 0 0 0 136.0277,26.4649 L136.0337,28.0648 A0.4,0.4 0 0 0 136.4358,28.4653 A0.4,0.4 0 0 0 136.8347,28.0628 L136.8287,26.4634 A0.4,0.4 0 0 0 136.4262,26.0649 M119.4711,26.9672 A0.4,0.4 0 0 0 119.0727,27.3693 L119.0846,28.9692 A0.4,0.4 0 0 0 119.4887,29.3655 A0.4,0.4 0 0 0 119.8851,28.963 L119.8737,27.3636 A0.4,0.4 0 0 0 119.4711,26.9672 M136.4381,29.2642 A0.4,0.4 0 0 0 136.0397,29.6662 L136.0457,31.2661 A0.4,0.4 0 0 0 136.4477,31.6645 A0.4,0.4 0 0 0 136.8462,31.2619 L136.8402,29.6625 A0.4,0.4 0 0 0 136.4376,29.2641 M119.4951,30.1665 A0.4,0.4 0 0 0 119.0967,30.5685 L119.1101,32.1684 A0.4,0.4 0 0 0 119.5127,32.5668 A0.4,0.4 0 0 0 119.909,32.1622 L119.8971,30.5628 A0.4,0.4 0 0 0 119.4951,30.1665 M136.4501,32.4651 A0.4,0.4 0 0 0 136.0522,32.8656 L136.0542,33.6097 L136.003,33.6097 A0.4,0.4 0 0 0 135.6025,34.0102 A0.4,0.4 0 0 0 136.001,34.4107 L136.8588,34.4122 L136.8528,32.8635 A0.4,0.4 0 0 0 136.4507,32.4651 M119.5191,33.3653 A0.4,0.4 0 0 0 119.1228,33.7699 L119.1228,33.9808 A0.4,0.4 0 0 0 119.5269,34.3771 A0.4,0.4 0 0 0 119.7615,34.1389 A0.4,0.4 0 0 0 120.0013,34.3792 L121.6033,34.3813 A0.4,0.4 0 0 0 122.0033,33.9829 A0.4,0.4 0 0 0 121.6033,33.5824 L120.0034,33.5783 A0.4,0.4 0 0 0 119.8685,33.7131 A0.4,0.4 0 0 0 119.5192,33.3654 M123.2047,33.5844 A0.4,0.4 0 0 0 122.8022,33.9844 A0.4,0.4 0 0 0 123.2027,34.3849 L124.8026,34.389 A0.4,0.4 0 0 0 125.2025,33.9885 A0.4,0.4 0 0 0 124.8041,33.588 M126.404,33.5922 A0.4,0.4 0 0 0 126.0035,33.9906 A0.4,0.4 0 0 0 126.402,34.3906 L128.0014,34.3947 A0.4,0.4 0 0 0 128.4039,33.9942 A0.4,0.4 0 0 0 128.0034,33.5937 M129.6033,33.5979 A0.4,0.4 0 0 0 129.2028,33.9963 A0.4,0.4 0 0 0 129.6033,34.3968 L131.2027,34.4004 A0.4,0.4 0 0 0 131.6032,34.002 A0.4,0.4 0 0 0 131.2048,33.5999 M132.8041,33.6036 A0.4,0.4 0 0 0 132.4036,34.0025 A0.4,0.4 0 0 0 132.8021,34.4046 L134.402,34.4067 A0.4,0.4 0 0 0 134.8025,34.0083 A0.4,0.4 0 0 0 134.404,33.6078" fill="#000000"/><text fill="#000000" font-family="Verdana" font-size="12" lengthAdjust="spacing" textLength="55.3535" x="49.3232" y="47.1387">Grouping</text></g><!--SRC=[AyxEp2j8B4hCLKXAJCvEByelpKjnpi_9Br8eAKhCAmPAfUQLS2bcvYNdbAQaAjWa5YLdPEOcbgJgEy9OTbp-9HcfHV7kGCq5cNdf6Z26Ze8IZAca2G00]--></g></svg>