<svg xmlns="http://www.w3.org/2000/svg" xmlns:xlink="http://www.w3.org/1999/xlink" contentStyleType="text/css" data-diagram-type="DESCRIPTION" height="73px" preserveAspectRatio="none" style="width:161px;height:73px;background:#FFFFFF;" version="1.1" viewBox="0 0 161 73" width="161px" zoomAndPan="magnify"><defs/><g><!--entity Facility--><g class="entity" data-entity="Facility" data-source-line="256" data-uid="ent0002" id="entity_Facility"><rect fill="#97FF97" height="52.9688" rx="0.5" ry="0.5" style="stroke:#181818;stroke-width:0.5;" width="140" x="7" y="7"/><path d="M120.09,19 A0.5001,0.5001 0 0 0 119.59,19.5 L119.6232,35.441 A0.5001,0.5001 0 0 0 120.1232,35.941 L135.5022,35.941 A0.5001,0.5001 0 0 0 136.0022,35.441 L136.0022,26.3121 A0.5001,0.5001 0 0 0 135.2092,25.9078 L131.9455,28.2672 L131.967,26.318 A0.5001,0.5001 0 0 0 131.1584,25.9196 L127.9768,28.4157 L127.9983,26.2848 A0.5001,0.5001 0 0 0 127.2015,25.8785 L123.9983,28.2594 L123.9983,19.4996 A0.5001,0.5001 0 0 0 123.4983,18.9996 M120.592,20 L122.9982,20 L122.9982,29.2559 A0.5001,0.5001 0 0 0 123.795,29.6563 L126.9903,27.2793 L126.9669,29.4492 A0.5001,0.5001 0 0 0 127.7755,29.8476 L130.9552,27.3496 L130.9357,29.25 A0.5001,0.5001 0 0 0 131.7287,29.6602 L135.0021,27.2911 L135.0021,34.9415 L120.6211,34.9415" fill="#000000"/><text fill="#000000" font-family="Verdana" font-size="12" lengthAdjust="spacing" textLength="42.6621" x="55.6689" y="47.1387">Facility</text></g><!--SRC=[AyxEp2j8B4hCLKXAJCvEByelpKjnpi_9Br8eAKhCAmPAfUQLS2bcvYNdbAQaAjWa5YLdPEOcbgJgEy9OTbm16PN5cSc9EV5kYScPEPabbHemXew24eoff0a0]--></g></svg>