<svg xmlns="http://www.w3.org/2000/svg" xmlns:xlink="http://www.w3.org/1999/xlink" contentStyleType="text/css" data-diagram-type="DESCRIPTION" height="73px" preserveAspectRatio="none" style="width:161px;height:73px;background:#FFFFFF;" version="1.1" viewBox="0 0 161 73" width="161px" zoomAndPan="magnify"><defs/><g><!--entity Material--><g class="entity" data-entity="Material" data-source-line="262" data-uid="ent0002" id="entity_Material"><rect fill="#97FF97" height="52.9688" rx="0.5" ry="0.5" style="stroke:#181818;stroke-width:0.5;" width="140" x="7" y="7"/><path d="M125.33,19.088 C124.6653,19.096 124.17,19.1529 123.7384,19.3986 C123.3068,19.6442 123.0045,20.0403 122.6584,20.6078 C122.3123,21.1752 121.9089,21.9381 121.2833,23.0061 C120.6577,24.0741 120.1889,24.7996 119.8632,25.3791 C119.5375,25.9586 119.3392,26.4157 119.3361,26.9123 C119.3331,27.4089 119.5252,27.8682 119.8436,28.4517 C120.1619,29.0352 120.6221,29.7681 121.2342,30.8438 C121.8462,31.9195 122.2393,32.6884 122.5783,33.2602 C122.9173,33.832 123.2138,34.2318 123.6423,34.4829 C124.0708,34.7339 124.5657,34.7965 125.2303,34.8126 C125.8948,34.8287 126.7583,34.7972 127.996,34.8046 C129.2337,34.8126 130.097,34.8552 130.7617,34.8475 C131.4264,34.8395 131.9196,34.7826 132.3513,34.5369 C132.7829,34.2913 133.0851,33.8957 133.4313,33.3282 C133.7774,32.7607 134.1808,31.9958 134.8064,30.9278 C135.4319,29.8598 135.9008,29.1343 136.2265,28.5548 C136.5521,27.9753 136.7504,27.5182 136.7536,27.0216 C136.7566,26.525 136.5645,26.0657 136.2461,25.4822 C135.9277,24.8987 135.4691,24.1674 134.857,23.0916 C134.2449,22.0158 133.8504,21.2475 133.5113,20.6757 C133.1723,20.1039 132.8758,19.704 132.4473,19.453 C132.0188,19.202 131.5238,19.1368 130.8593,19.1207 C130.1948,19.1046 129.3313,19.1385 128.0936,19.131 C126.8559,19.123 125.9946,19.0804 125.33,19.0881 M125.338,19.8869 C125.9589,19.8799 126.8366,19.9224 128.0903,19.9303 C129.3439,19.9383 130.2193,19.9072 130.84,19.9223 C131.4607,19.9373 131.7986,19.9996 132.0435,20.143 C132.2884,20.2864 132.5077,20.5504 132.8243,21.0845 C133.141,21.6186 133.5422,22.3973 134.1622,23.4869 C134.7822,24.5765 135.2477,25.3205 135.5451,25.8656 C135.8425,26.4107 135.9552,26.7342 135.9534,27.018 C135.9514,27.3018 135.8339,27.6234 135.5296,28.1647 C135.2254,28.706 134.751,29.442 134.1173,30.5237 C133.4837,31.6054 133.0717,32.3805 132.7484,32.9106 C132.4251,33.4407 132.2039,33.702 131.9573,33.8424 C131.7106,33.9827 131.3731,34.0403 130.7522,34.0475 C130.1313,34.0545 129.2541,34.012 128.0004,34.0041 C126.7468,33.9961 125.8709,34.0272 125.2502,34.0121 C124.6294,33.9971 124.292,33.9348 124.0472,33.7915 C123.8023,33.648 123.5846,33.3861 123.2679,32.852 C122.9512,32.3179 122.55,31.5371 121.93,30.4475 C121.31,29.3579 120.8445,28.6139 120.5471,28.0688 C120.2497,27.5237 120.1355,27.2022 120.1373,26.9185 C120.1393,26.6347 120.2568,26.3131 120.561,25.7718 C120.8653,25.2305 121.3392,24.4924 121.9728,23.4107 C122.6065,22.3289 123.0189,21.5538 123.3422,21.0238 C123.6656,20.4937 123.8862,20.2345 124.1329,20.0941 C124.3796,19.9538 124.7171,19.8941 125.338,19.8869 M130.147,22.0237 A0.5,0.5 0 0 0 129.8984,22.0991 A0.5,0.5 0 0 0 129.7382,22.7864 L132.584,27.351 A0.5,0.5 0 0 0 133.2713,27.5112 A0.5,0.5 0 0 0 133.4315,26.8219 L130.5877,22.2594 A0.5,0.5 0 0 0 130.2772,22.0366 A0.5,0.5 0 0 0 130.1469,22.0237 M125.8816,22.0893 A0.5,0.5 0 0 0 125.4398,22.3234 L122.6291,26.8218 A0.5,0.5 0 0 0 122.7872,27.5112 A0.5,0.5 0 0 0 123.4766,27.353 L126.2873,22.8546 A0.5,0.5 0 0 0 126.1291,22.1653 A0.5,0.5 0 0 0 125.8816,22.0893 M125.0703,30.589 A0.5,0.5 0 0 0 124.5706,31.0892 A0.5,0.5 0 0 0 125.0703,31.589 L131.1232,31.589 A0.5,0.5 0 0 0 131.6234,31.0892 A0.5,0.5 0 0 0 131.1232,30.589" fill="#000000"/><text fill="#000000" font-family="Verdana" font-size="12" lengthAdjust="spacing" textLength="48.75" x="52.625" y="47.1387">Material</text></g><!--SRC=[AyxEp2j8B4hCLKXAJCvEByelpKjnpi_9Br8eAKhCAmPAfUQLS2bcvYNdbAQaAjWa5YLdPEOcbgJgEy9OTbm16PN5cSc9EV6-G6vHPcAE1eoXew04Ooff0W00]--></g></svg>