<svg xmlns="http://www.w3.org/2000/svg" xmlns:xlink="http://www.w3.org/1999/xlink" contentStyleType="text/css" data-diagram-type="DESCRIPTION" height="73px" preserveAspectRatio="none" style="width:161px;height:73px;background:#FFFFFF;" version="1.1" viewBox="0 0 161 73" width="161px" zoomAndPan="magnify"><defs/><g><!--entity Equipment--><g class="entity" data-entity="Equipment" data-source-line="253" data-uid="ent0002" id="entity_Equipment"><rect fill="#97FF97" height="52.9688" rx="0.5" ry="0.5" style="stroke:#181818;stroke-width:0.5;" width="140" x="7" y="7"/><path d="M132.8798,17.3801 C132.7306,17.3807 132.5742,17.4045 132.4157,17.4441 C131.9932,17.5499 131.6365,17.7493 131.4995,18.1076 C131.3626,18.466 131.4788,18.7481 131.5445,18.9587 C131.6102,19.1694 131.6615,19.3414 131.6634,19.4832 C131.6652,19.6251 131.6455,19.7437 131.4789,19.9426 C131.3122,20.1416 131.1997,20.1816 131.0598,20.2046 C130.9198,20.2277 130.7412,20.2071 130.5223,20.1793 C130.3034,20.1515 130.0046,20.0886 129.6759,20.2863 C129.3471,20.484 129.2139,20.8703 129.1839,21.3048 C129.1539,21.7393 129.2321,22.1402 129.5306,22.3812 C129.8291,22.6223 130.1327,22.6003 130.3533,22.6029 C130.5739,22.6055 130.7548,22.6084 130.8902,22.6505 C131.0257,22.6925 131.1318,22.7488 131.2695,22.9688 C131.4072,23.1887 131.4103,23.3086 131.3889,23.4489 C131.3676,23.589 131.2923,23.7521 131.1982,23.9517 C131.1638,24.0245 131.1219,24.1061 131.0866,24.1982 C131.096,24.1406 131.1016,24.0795 131.1016,24.0147 C131.1015,23.6338 130.8524,23.2729 130.4701,22.9951 C130.0878,22.7174 129.6671,22.5933 129.3048,22.7109 C128.9425,22.8285 128.7635,23.0809 128.618,23.2566 C128.4725,23.4324 128.358,23.5556 128.2656,23.606 C128.1732,23.6563 128.0937,23.6889 127.8191,23.5998 C127.5445,23.5105 127.4979,23.4369 127.4527,23.3419 C127.4075,23.2469 127.388,23.0792 127.3736,22.8515 C127.3588,22.6238 127.3631,22.3142 127.139,22.0061 C126.9146,21.6983 126.5015,21.5529 126.029,21.5528 C125.5565,21.5528 125.142,21.6974 124.9179,22.0055 C124.6939,22.3136 124.6972,22.6237 124.6828,22.8515 C124.6684,23.0792 124.65,23.2458 124.6048,23.3409 C124.5595,23.4359 124.5135,23.51 124.2389,23.5993 C123.9642,23.6884 123.8823,23.6553 123.7898,23.6049 C123.6974,23.5547 123.5845,23.4308 123.4389,23.2551 C123.2934,23.0793 123.1134,22.8281 122.7511,22.7104 C122.3888,22.5929 121.9696,22.7184 121.5874,22.9962 C121.2052,23.2741 120.956,23.6338 120.9559,24.0148 C120.9557,24.3957 121.1401,24.6442 121.2623,24.8369 C121.3845,25.0297 121.4663,25.1774 121.4855,25.2809 C121.5044,25.3843 121.5118,25.471 121.3419,25.7046 C121.1721,25.9382 121.0871,25.9587 120.9829,25.9726 C120.8786,25.9865 120.7131,25.9528 120.492,25.8961 C120.271,25.8394 119.9783,25.741 119.6161,25.8589 C119.2538,25.9767 118.9887,26.3254 118.8425,26.7746 C118.6965,27.224 118.7071,27.6632 118.9309,27.9714 C119.1545,28.2798 119.4494,28.3721 119.6616,28.4561 C119.8737,28.5402 120.027,28.6101 120.1034,28.6825 C120.1798,28.7548 120.2368,28.8216 120.2367,29.1104 C120.2367,29.3991 120.1793,29.4649 120.1029,29.5372 C120.0264,29.6096 119.8737,29.68 119.6616,29.7641 C119.4494,29.8481 119.1547,29.941 118.9309,30.2493 C118.7071,30.5576 118.6965,30.9952 118.8425,31.4446 C118.9885,31.894 119.2539,32.2414 119.6161,32.3593 C119.9784,32.4772 120.271,32.3809 120.492,32.3242 C120.713,32.2675 120.8786,32.2336 120.9829,32.2472 C121.0873,32.2609 121.1734,32.2818 121.3431,32.5154 C121.5129,32.749 121.505,32.8352 121.4858,32.9386 C121.4664,33.0421 121.3837,33.1898 121.2615,33.3825 C121.1393,33.5753 120.9565,33.8227 120.9566,34.2037 C120.9567,34.5846 121.2043,34.946 121.5865,35.2238 C121.9688,35.5015 122.389,35.6251 122.7513,35.5075 C123.1136,35.3899 123.2931,35.1401 123.4386,34.9644 C123.5842,34.7886 123.6981,34.6633 123.7905,34.6129 C123.8829,34.5626 123.9645,34.5295 124.2391,34.6186 C124.5137,34.7079 124.5587,34.782 124.6039,34.877 C124.6491,34.972 124.6686,35.1397 124.683,35.3674 C124.6979,35.5951 124.6951,35.9047 124.9191,36.2128 C125.1436,36.5206 125.5566,36.6676 126.0291,36.6676 C126.5017,36.6676 126.9141,36.5214 127.1381,36.2134 C127.3621,35.9053 127.3588,35.5952 127.3732,35.3674 C127.3876,35.1397 127.4081,34.9731 127.4533,34.878 C127.4985,34.783 127.5446,34.7089 127.8192,34.6196 C128.0938,34.5304 128.1737,34.5636 128.2662,34.614 C128.3586,34.6642 128.4736,34.788 128.6191,34.9638 C128.7646,35.1396 128.9444,35.3905 129.3069,35.508 C129.6692,35.6256 130.0884,35.5005 130.4707,35.2227 C130.8528,34.9448 131.102,34.5846 131.1021,34.2037 C131.1023,33.8227 130.9179,33.5742 130.7957,33.3815 C130.6735,33.1888 130.5918,33.0431 130.5725,32.9397 C130.5536,32.8362 130.5445,32.748 130.7146,32.5144 C130.8843,32.2808 130.9709,32.2603 131.0751,32.2465 C131.1794,32.2325 131.3429,32.2663 131.564,32.3229 C131.785,32.3796 132.0776,32.478 132.4399,32.3601 C132.8021,32.2423 133.0695,31.8932 133.2156,31.4439 C133.3616,30.9945 133.351,30.5579 133.1272,30.2496 C132.9035,29.9412 132.6091,29.8469 132.397,29.7628 C132.1848,29.6788 132.031,29.6083 131.9546,29.536 C131.8782,29.4637 131.8213,29.3989 131.8213,29.1102 C131.8213,28.8214 131.8788,28.7541 131.9551,28.6818 C132.0316,28.6094 132.1843,28.539 132.3965,28.4549 C132.6086,28.3708 132.9034,28.2774 133.1271,27.9691 C133.3509,27.6609 133.3615,27.2232 133.2155,26.7738 C133.0695,26.3244 132.8026,25.9775 132.4404,25.8597 C132.0781,25.7418 131.7855,25.8403 131.5644,25.8969 C131.3434,25.9536 131.1779,25.9855 131.0735,25.9718 C130.9692,25.9581 130.8851,25.9388 130.7154,25.7051 C130.5456,25.4716 130.553,25.3838 130.5723,25.2804 C130.5916,25.1769 130.6728,25.0292 130.795,24.8365 C130.8667,24.7233 130.9597,24.5911 131.0244,24.4241 C131.0074,24.5326 131.0076,24.6532 131.0389,24.7884 C131.1253,25.1622 131.4504,25.4101 131.8543,25.5728 C132.2583,25.7356 132.6641,25.7833 132.9855,25.5739 C133.307,25.3644 133.382,25.0693 133.4527,24.8602 C133.5233,24.6512 133.5827,24.4815 133.6645,24.3657 C133.7464,24.2499 133.8314,24.1667 134.0832,24.1037 C134.3349,24.0407 134.4494,24.0742 134.5761,24.1378 C134.7029,24.2014 134.8356,24.3235 134.9963,24.4747 C135.1571,24.6258 135.3613,24.8517 135.7435,24.885 C136.1257,24.9184 136.4591,24.6836 136.7388,24.3497 C137.0185,24.0158 137.1921,23.6447 137.0923,23.2743 C136.9925,22.9038 136.7334,22.7436 136.5564,22.6118 C136.3795,22.48 136.2351,22.3709 136.1502,22.2573 C136.0654,22.1436 136.013,22.0366 136.0309,21.7777 C136.0487,21.5188 136.1157,21.4192 136.2153,21.3183 C136.315,21.2174 136.4722,21.1298 136.6654,21.0232 C136.8588,20.9171 137.1373,20.793 137.2871,20.4398 C137.4369,20.0866 137.3177,19.6959 137.0866,19.3267 L137.0866,19.3262 C136.8555,18.957 136.5567,18.6791 136.1735,18.6596 C135.7904,18.6401 135.5577,18.8359 135.3777,18.9635 C135.1979,19.0914 135.0489,19.1933 134.9147,19.2389 C134.7804,19.2845 134.6608,19.3028 134.4201,19.2058 C134.1794,19.1088 134.1075,19.015 134.0424,18.889 C133.9772,18.7631 133.9415,18.5865 133.9003,18.3697 C133.859,18.1529 133.8271,17.8508 133.5375,17.5992 C133.3565,17.4419 133.1283,17.379 132.8796,17.3801 M132.871,18.3748 C132.8824,18.4089 132.9014,18.4675 132.918,18.5552 C132.955,18.7495 132.995,19.0417 133.1537,19.3484 C133.3123,19.6551 133.6122,19.9568 134.0477,20.1323 C134.4831,20.3078 134.9092,20.2986 135.2362,20.1876 C135.5632,20.0767 135.7947,19.8943 135.9561,19.7799 C136.029,19.7287 136.0835,19.6997 136.1152,19.6833 C136.1396,19.7106 136.1799,19.7625 136.2391,19.8576 C136.2988,19.9534 136.3281,20.0126 136.3424,20.0462 C136.3134,20.0679 136.263,20.1047 136.1842,20.148 C136.0108,20.2432 135.7479,20.3706 135.5052,20.6162 C135.2626,20.8619 135.0658,21.2392 135.0334,21.7076 C135.0011,22.176 135.1426,22.5797 135.3492,22.8564 C135.5554,23.1334 135.8013,23.2953 135.96,23.4134 C136.0311,23.4664 136.0753,23.5091 136.1011,23.5344 C136.0821,23.5656 136.0452,23.6207 135.9729,23.707 C135.9005,23.7935 135.8528,23.8393 135.8251,23.8635 C135.7961,23.8426 135.7461,23.8062 135.6815,23.7452 C135.5373,23.6097 135.3328,23.3978 135.0242,23.2429 C134.7155,23.088 134.2957,23.0183 133.8403,23.1323 C133.3848,23.2463 133.0469,23.5056 132.8475,23.7876 C132.6482,24.0696 132.5677,24.3526 132.5044,24.54 C132.4757,24.625 132.4486,24.6812 132.4325,24.7136 C132.3968,24.7052 132.333,24.6868 132.2289,24.6449 C132.1247,24.603 132.0665,24.5719 132.0351,24.5529 C132.0459,24.5188 132.0649,24.4591 132.1034,24.3777 C132.1877,24.1988 132.3254,23.9404 132.3773,23.599 C132.4292,23.2576 132.366,22.8363 132.1168,22.4383 C131.8677,22.0404 131.516,21.7991 131.1861,21.6968 C130.8564,21.5944 130.5629,21.6061 130.365,21.6038 C130.276,21.6028 130.2151,21.5938 130.1795,21.5883 C130.1764,21.5519 130.1738,21.4856 130.1816,21.3728 C130.1894,21.2603 130.2007,21.1954 130.2089,21.1599 C130.2448,21.1593 130.307,21.159 130.3955,21.1702 C130.5918,21.1951 130.88,21.2475 131.2208,21.1914 C131.5615,21.1353 131.9435,20.9431 132.245,20.5832 C132.5464,20.2233 132.6681,19.8159 132.6636,19.4706 C132.6591,19.1253 132.5571,18.8497 132.4982,18.6608 C132.4715,18.5754 132.461,18.5148 132.4548,18.4794 C132.4887,18.4651 132.5508,18.4416 132.66,18.4143 C132.7688,18.387 132.8343,18.3784 132.8708,18.375 M133.3961,20.4646 C132.7152,20.4737 132.1617,21.0416 132.1698,21.7224 C132.1778,22.4033 132.7446,22.9562 133.4255,22.9492 C134.1065,22.9422 134.6617,22.3781 134.656,21.6971 C134.65,21.0162 134.0848,20.46 133.4039,20.4647 A0.2407,0.2407 0 0 0 133.4005,20.4685 A0.2407,0.2407 0 0 0 133.3962,20.4642 M133.4079,21.2615 A0.2407,0.2407 0 0 0 133.4101,21.2636 C133.6592,21.2616 133.8529,21.4538 133.855,21.7029 C133.857,21.9519 133.6669,22.1479 133.4178,22.1504 C133.1687,22.1534 132.9717,21.9618 132.9688,21.7127 C132.9658,21.4636 133.1569,21.267 133.406,21.2637 A0.2407,0.2407 0 0 0 133.4081,21.2615 M126.0286,22.5529 C126.2788,22.5529 126.3231,22.5832 126.3293,22.5921 L126.3293,22.5926 L126.3298,22.5932 L126.3298,22.5937 L126.3298,22.5942 L126.3293,22.5942 C126.3259,22.5905 126.363,22.6973 126.3768,22.9151 C126.3907,23.1329 126.3942,23.4408 126.551,23.7704 C126.7077,24.0999 127.0414,24.3997 127.5091,24.5517 C127.9768,24.7037 128.4247,24.659 128.7452,24.4845 C129.0657,24.31 129.2489,24.0625 129.388,23.8944 C129.5265,23.7271 129.6188,23.6619 129.6149,23.6629 L129.6149,23.6624 L129.6149,23.6618 L129.6154,23.6613 L129.6159,23.6613 L129.6164,23.6608 L129.6169,23.6608 C129.6273,23.6568 129.6812,23.6583 129.8836,23.8055 C130.0861,23.9526 130.1037,24.0032 130.1033,24.0142 L130.1032,24.0153 L130.1027,24.0158 L130.1027,24.0163 L130.1022,24.0163 C130.1014,24.0119 130.0678,24.1189 129.9513,24.3026 C129.8345,24.4869 129.656,24.7381 129.5891,25.0969 C129.5222,25.4556 129.6163,25.8953 129.9053,26.2931 C130.194,26.6912 130.5821,26.9162 130.944,26.9634 C131.3059,27.0106 131.6018,26.9186 131.8132,26.8642 C132.0239,26.8102 132.1351,26.8105 132.131,26.8089 L132.1315,26.8089 L132.1315,26.8084 L132.132,26.8084 L132.1326,26.8084 C132.141,26.8096 132.1846,26.8367 132.2649,27.0838 C132.3422,27.3218 132.3265,27.3733 132.3196,27.382 L132.3191,27.3825 L132.3186,27.383 L132.3176,27.383 L132.3176,27.3825 C132.3204,27.3779 132.2313,27.445 132.0282,27.5252 C131.8253,27.6056 131.5336,27.7057 131.2686,27.9567 C131.0036,28.2076 130.8221,28.6173 130.8221,29.109 C130.8221,29.6008 131.002,30.011 131.267,30.2619 C131.532,30.5129 131.8243,30.6125 132.0272,30.6929 C132.2292,30.773 132.3192,30.84 132.3171,30.8366 L132.3176,30.8366 L132.3181,30.8371 L132.3186,30.8371 L132.3186,30.8376 C132.3242,30.8434 132.3445,30.8886 132.2644,31.1353 C132.187,31.3733 132.1442,31.4061 132.1336,31.4092 L132.1326,31.4092 L132.1321,31.4092 L132.1316,31.4092 L132.1316,31.4086 C132.1354,31.407 132.0229,31.4079 131.8122,31.3539 C131.6008,31.2997 131.3075,31.2069 130.9456,31.2541 C130.5837,31.3012 130.1954,31.5291 129.9063,31.9269 C129.6173,32.3248 129.5211,32.7624 129.588,33.1212 C129.6549,33.48 129.8334,33.7317 129.9503,33.916 C130.0668,34.0997 130.102,34.2061 130.1022,34.2017 L130.1027,34.2017 L130.1027,34.2022 L130.1033,34.2022 L130.1033,34.2028 L130.1033,34.2033 C130.1049,34.2121 130.0933,34.2614 129.8831,34.4141 C129.6809,34.5615 129.6268,34.5618 129.6165,34.5578 L129.616,34.5573 L129.6155,34.5573 L129.6149,34.5568 L129.6149,34.5562 L129.6149,34.5557 C129.6191,34.5563 129.5271,34.4921 129.3886,34.3247 C129.2494,34.1566 129.0661,33.9083 128.7453,33.734 C128.4247,33.5595 127.9784,33.5154 127.5107,33.6674 C127.043,33.8194 126.7068,34.1187 126.5501,34.4482 C126.3933,34.7778 126.3908,35.0872 126.377,35.305 C126.3632,35.5228 126.327,35.628 126.33,35.6239 L126.3305,35.6239 L126.3305,35.6244 L126.3305,35.6249 L126.33,35.6254 C126.326,35.6334 126.2883,35.6656 126.0282,35.6657 C125.7779,35.6657 125.7331,35.6355 125.7269,35.6265 L125.7269,35.6259 L125.7264,35.6254 L125.7264,35.6249 L125.7264,35.6244 L125.7269,35.6244 L125.7274,35.6249 C125.7308,35.6286 125.6952,35.5213 125.6814,35.3035 C125.6676,35.0857 125.6641,34.7773 125.5073,34.4477 C125.3505,34.1182 125.0148,33.8188 124.5471,33.6669 C124.0795,33.5149 123.6342,33.5612 123.3136,33.7356 C122.9931,33.9101 122.8074,34.1577 122.6682,34.3258 C122.5294,34.4935 122.4396,34.5591 122.4439,34.5578 L122.4439,34.5583 L122.4434,34.5588 L122.4429,34.5594 L122.4418,34.5594 C122.4315,34.5634 122.3776,34.5623 122.1752,34.4152 C121.9649,34.2624 121.9539,34.2121 121.9556,34.2033 L121.9556,34.2028 L121.9556,34.2023 L121.9561,34.2023 C121.9561,34.2073 121.9901,34.1019 122.107,33.9175 C122.2238,33.7332 122.4023,33.4805 122.4692,33.1217 C122.5361,32.763 122.4405,32.3253 122.1514,31.9275 C121.8627,31.5294 121.4741,31.3024 121.1122,31.2552 C120.7504,31.208 120.4565,31.3001 120.2451,31.3545 C120.0337,31.4087 119.922,31.4076 119.9268,31.4092 L119.9268,31.4097 L119.9268,31.4103 L119.9263,31.4103 L119.9257,31.4103 L119.9252,31.4103 C119.9168,31.4091 119.8723,31.384 119.7919,31.1369 C119.7116,30.8898 119.733,30.8419 119.7397,30.8356 L119.7402,30.8356 L119.7402,30.8351 L119.7407,30.8351 L119.7407,30.8356 C119.7379,30.8403 119.8274,30.7741 120.0301,30.6936 C120.233,30.6131 120.5253,30.5151 120.7903,30.2641 C121.0553,30.0132 121.2362,29.6014 121.2362,29.1097 C121.2362,28.618 121.0562,28.2072 120.7913,27.9563 C120.5263,27.7054 120.232,27.6062 120.0291,27.5258 C119.8262,27.4454 119.7362,27.3796 119.7392,27.3837 L119.7387,27.3837 L119.7381,27.3837 L119.7382,27.3832 C119.7319,27.3766 119.7116,27.3306 119.7919,27.0835 C119.8722,26.8363 119.9169,26.8107 119.9257,26.8096 L119.9268,26.8096 L119.9268,26.8101 C119.923,26.8117 120.0339,26.8109 120.2446,26.8649 C120.456,26.9191 120.7514,27.0113 121.1133,26.9641 C121.4751,26.917 121.8629,26.6912 122.1519,26.2934 C122.441,25.8955 122.5351,25.4563 122.4682,25.0976 C122.4013,24.7388 122.2228,24.4871 122.1059,24.3028 C121.9894,24.119 121.9563,24.0121 121.9561,24.0165 L121.9556,24.0165 L121.955,24.016 L121.955,24.0155 C121.9534,24.0067 121.965,23.9574 122.1752,23.8046 C122.3774,23.6572 122.432,23.6569 122.4424,23.661 L122.4429,23.6615 L122.4434,23.6615 L122.4434,23.662 L122.4439,23.662 L122.4439,23.6626 C122.4391,23.6612 122.5309,23.7264 122.6697,23.8941 C122.8089,24.0622 122.9928,24.3095 123.3131,24.4842 C123.6336,24.6587 124.08,24.7028 124.5477,24.5509 C125.0153,24.3989 125.3495,24.1001 125.5063,23.7705 C125.663,23.441 125.6682,23.1336 125.682,22.9158 C125.6957,22.6987 125.7312,22.5915 125.7285,22.5949 L125.728,22.5949 L125.728,22.5944 L125.728,22.5939 L125.7285,22.5934 L125.7285,22.5928 L125.729,22.5923 C125.7347,22.583 125.7779,22.5529 126.0287,22.5531 M126.0327,26.58 C124.6241,26.5992 123.4847,27.7561 123.5016,29.1581 C123.5185,30.5603 124.6849,31.688 126.0937,31.6737 C127.5024,31.6594 128.6467,30.5076 128.6346,29.1054 C128.6224,27.7032 127.459,26.5704 126.0502,26.58 A0.2407,0.2407 0 0 0 126.0427,26.5882 A0.2407,0.2407 0 0 0 126.033,26.5803 M126.0508,27.3732 A0.2407,0.2407 0 0 0 126.0564,27.379 C127.0371,27.372 127.8252,28.1446 127.8335,29.1112 C127.8415,30.0778 127.0665,30.8629 126.0858,30.8729 C125.1051,30.8829 124.3141,30.115 124.3025,29.1485 C124.2909,28.1819 125.0639,27.3923 126.0445,27.3791 A0.2407,0.2407 0 0 0 126.0504,27.3736" fill="#000000"/><text fill="#000000" font-family="Verdana" font-size="12" lengthAdjust="spacing" textLength="65.1387" x="44.4307" y="47.1387">Equipment</text></g><!--SRC=[AyxEp2j8B4hCLKXAJCvEByelpKjnpi_9Br8eAKhCAmPAfUQLS2bcvYNdbAQaAjWa5YLdPEOcbgJgEy9OTbm16PN5cSc9EV6kXQMP1Rb07Hfmbew24fojf0a0]--></g></svg>