<svg xmlns="http://www.w3.org/2000/svg" xmlns:xlink="http://www.w3.org/1999/xlink" contentStyleType="text/css" data-diagram-type="DESCRIPTION" height="73px" preserveAspectRatio="none" style="width:161px;height:73px;background:#FFFFFF;" version="1.1" viewBox="0 0 161 73" width="161px" zoomAndPan="magnify"><defs/><g><!--entity DistributionNetwork--><g class="entity" data-entity="DistributionNetwork" data-source-line="259" data-uid="ent0002" id="entity_DistributionNetwork"><rect fill="#97FF97" height="52.9688" rx="0.5" ry="0.5" style="stroke:#181818;stroke-width:0.5;" width="140.1113" x="7" y="7"/><path d="M132.1513,22.37 A0.5,0.5 0 0 0 131.7979,22.5162 A0.5,0.5 0 0 0 131.7979,23.2232 L134.0959,25.5223 L122.3549,25.5399 L124.6235,23.2703 A0.5,0.5 0 0 0 124.6235,22.5633 A0.5,0.5 0 0 0 124.27,22.4166 A0.5,0.5 0 0 0 123.9165,22.5633 L118.9364,27.5454 A0.5001,0.5001 0 0 0 118.9364,28.2529 L124.0105,33.327 A0.5,0.5 0 0 0 124.7175,33.327 A0.5,0.5 0 0 0 124.7175,32.6201 L122.5512,30.4533 L133.9842,30.4802 L131.8913,32.5731 A0.5,0.5 0 0 0 131.8913,33.28 A0.5,0.5 0 0 0 132.5982,33.28 L137.5788,28.2994 A0.5001,0.5001 0 0 0 137.5788,27.5924 L132.5047,22.5162 A0.5,0.5 0 0 0 132.1512,22.37 M135.0938,26.5206 L136.5185,27.9458 L134.9816,29.4827 L121.5486,29.4507 L119.9968,27.8989 L121.3533,26.5414" fill="#000000"/><text fill="#000000" font-family="Verdana" font-size="12" lengthAdjust="spacing" textLength="120.1113" x="17" y="47.1387">DistributionNetwork</text></g><!--SRC=[AyxEp2j8B4hCLKXAJCvEByelpKjnpi_9Br8eAKhCAmPAfUQLS2bcvYNdbAQaAjWa5YLdPEOcbgJgEy9OTbm16PN5cSc9EV4kcSKbHPb9fIMP-Nb-gINb-KNP6bZ4T1IKi8WgQG80]--></g></svg>