<svg xmlns="http://www.w3.org/2000/svg" xmlns:xlink="http://www.w3.org/1999/xlink" contentStyleType="text/css" data-diagram-type="DESCRIPTION" height="73px" preserveAspectRatio="none" style="width:161px;height:73px;background:#FFFFFF;" version="1.1" viewBox="0 0 161 73" width="161px" zoomAndPan="magnify"><defs/><g><!--entity Capability--><g class="entity" data-entity="Capability" data-source-line="92" data-uid="ent0002" id="entity_Capability"><rect fill="#F8E7C0" height="52.9688" rx="12.5" ry="12.5" style="stroke:#181818;stroke-width:0.5;" width="140" x="7" y="7"/><path d="M129.917,19.364 A0.5001,0.5001 0 0 0 129.4132,19.8637 L129.4132,24.3895 L124.9111,24.3678 A0.5001,0.5001 0 0 0 124.4093,24.868 L124.4093,29.4207 L119.8819,29.4207 A0.5001,0.5001 0 0 0 119.3817,29.9246 L119.4287,34.8602 A0.5001,0.5001 0 0 0 119.9289,35.3542 L134.9429,35.3542 A0.5001,0.5001 0 0 0 135.4431,34.854 L135.4194,19.887 A0.5001,0.5001 0 0 0 134.9212,19.3867 M130.4131,20.366 L134.4191,20.3856 L134.4248,24.4127 L130.4132,24.3931 M125.4093,25.3698 L129.4132,25.3894 L129.4132,29.4207 L125.4093,29.4207 M130.4131,25.3931 L134.4191,25.4127 L134.4191,29.4207 L130.4131,29.4207 M120.3861,30.4207 L124.4096,30.4207 L124.4096,34.3543 L120.4253,34.3543 M125.4096,30.4207 L129.4135,30.4207 L129.4135,34.3305 L125.4096,34.3305 M130.4134,30.4207 L134.4349,30.4207 L134.4427,34.3543 L130.4135,34.3543" fill="#000000"/><text fill="#000000" font-family="Verdana" font-size="12" lengthAdjust="spacing" textLength="60.1289" x="46.9355" y="47.1387">Capability</text></g><!--SRC=[AyxEp2j8B4hCLKXAJCvEByelpKjnpi_9Br8eAKhCAmPAfUQLS2bcvYNdbAQaAjWa5YLdPEOcbgJgEy9OTbp1GBKbgUcLySw91Ob9cJcP9PKQ2AQEWXA2ewG90000]--></g></svg>