<svg xmlns="http://www.w3.org/2000/svg" xmlns:xlink="http://www.w3.org/1999/xlink" contentStyleType="text/css" data-diagram-type="DESCRIPTION" height="73px" preserveAspectRatio="none" style="width:161px;height:73px;background:#FFFFFF;" version="1.1" viewBox="0 0 161 73" width="161px" zoomAndPan="magnify"><defs/><g><!--entity Resource--><g class="entity" data-entity="Resource" data-source-line="89" data-uid="ent0002" id="entity_Resource"><rect fill="#F8E7C0" height="52.9688" rx="0.5" ry="0.5" style="stroke:#181818;stroke-width:0.5;" width="140" x="7" y="7"/><path d="M119.08,22.182 A0.5001,0.5001 0 0 0 118.5782,22.6817 L118.5782,32.1054 A0.5001,0.5001 0 0 0 119.0779,32.6056 L133.9999,32.6056 A0.5001,0.5001 0 0 0 134.4996,32.1116 L134.5172,30.3324 L136.0623,30.3148 A0.5001,0.5001 0 0 0 136.5563,29.8146 L136.5563,24.832 A0.5001,0.5001 0 0 0 136.0623,24.3323 L134.5564,24.3147 L134.5466,22.7014 A0.5001,0.5001 0 0 0 134.0464,22.2053 M119.5782,23.1819 L133.5492,23.2031 L133.5647,25.4882 L133.5042,31.6057 L119.5782,31.6057 M124.0079,24.4805 A0.25,0.25 0 0 0 123.7578,24.7306 L123.7696,30.0099 A0.25,0.25 0 0 0 123.7779,30.0745 A0.25,0.25 0 0 0 123.7883,30.1056 A0.25,0.25 0 0 0 124.0193,30.2601 A0.25,0.25 0 0 0 124.2694,30.01 L124.2575,24.7307 A0.25,0.25 0 0 0 124.0079,24.4805 M121.0995,24.4867 A0.25,0.25 0 0 0 120.8494,24.7363 L120.8297,29.9789 A0.25,0.25 0 0 0 121.0798,30.2306 A0.25,0.25 0 0 0 121.3299,29.9805 L121.3496,24.7384 A0.25,0.25 0 0 0 121.0995,24.4867 M126.9648,24.4903 A0.25,0.25 0 0 0 126.7147,24.7384 L126.7049,30.0001 A0.25,0.25 0 0 0 126.955,30.2502 A0.25,0.25 0 0 0 127.2051,30.0022 L127.2149,24.7404 A0.25,0.25 0 0 0 126.9648,24.4903 M134.5664,25.3146 L135.5565,25.3265 L135.5565,29.3206 L134.5876,29.3324 L134.5643,25.4495" fill="#000000"/><text fill="#000000" font-family="Verdana" font-size="12" lengthAdjust="spacing" textLength="55.834" x="49.083" y="47.1387">Resource</text></g><!--SRC=[AyxEp2j8B4hCLKXAJCvEByelpKjnpi_9Br8eAKhCAmPAfUQLS2bcvYNdbAQaAjWa5YLdPEOcbgJgEy9OTbp1GBKbgUcLyK6fnVcbHScf6Z26Ze8IZAca2G00]--></g></svg>