<svg xmlns="http://www.w3.org/2000/svg" xmlns:xlink="http://www.w3.org/1999/xlink" contentStyleType="text/css" data-diagram-type="DESCRIPTION" height="73px" preserveAspectRatio="none" style="width:161px;height:73px;background:#FFFFFF;" version="1.1" viewBox="0 0 161 73" width="161px" zoomAndPan="magnify"><defs/><g><!--entity CourseOfAction--><g class="entity" data-entity="CourseOfAction" data-source-line="95" data-uid="ent0002" id="entity_CourseOfAction"><rect fill="#F8E7C0" height="52.9688" rx="12.5" ry="12.5" style="stroke:#181818;stroke-width:0.5;" width="140" x="7" y="7"/><path d="M131.12,17.571 C127.7008,17.6175 124.954,20.435 124.9948,23.8543 C125.0356,27.2736 127.8489,30.0258 131.2683,29.9909 C134.6877,29.9559 137.4439,27.1466 137.4147,23.7272 C137.3855,20.3078 134.5824,17.5476 131.1629,17.571 A0.5,0.5 0 0 0 131.1412,17.5808 A0.5,0.5 0 0 0 131.12,17.571 M131.151,18.5632 A0.5,0.5 0 0 0 131.1686,18.571 C134.0483,18.5513 136.3902,20.8575 136.4148,23.7371 C136.4393,26.6167 134.1381,28.9616 131.2585,28.991 C128.3789,29.0204 126.0291,26.722 125.9947,23.8425 C125.9604,20.963 128.2539,18.6102 131.1334,18.571 A0.5,0.5 0 0 0 131.1509,18.5632 M131.1531,19.9109 C129.0247,19.9399 127.3114,21.6985 127.3368,23.8269 C127.3622,25.9554 129.1166,27.6712 131.2451,27.6494 C133.3736,27.6276 135.093,25.8753 135.0748,23.7468 C135.0566,21.6183 133.307,19.8963 131.1784,19.9109 A0.5,0.5 0 0 0 131.1706,19.9187 A0.5,0.5 0 0 0 131.153,19.9109 M131.1805,20.9051 A0.5,0.5 0 0 0 131.1862,20.9108 C132.7749,20.9 134.0614,22.1679 134.0749,23.7566 C134.0884,25.3453 132.824,26.6332 131.2353,26.6494 C129.6466,26.6657 128.3557,25.4036 128.3368,23.8149 C128.3179,22.2262 129.578,20.9323 131.1666,20.9107 A0.5,0.5 0 0 0 131.1805,20.905 M131.1939,22.0926 A0.959,0.959 0 0 0 131.1882,22.0983 A0.959,0.959 0 0 0 131.182,22.0947 C130.2627,22.1073 129.5071,22.8823 129.518,23.8016 C129.5204,24.0061 129.5607,24.2023 129.6317,24.384 C129.6666,24.5135 129.731,24.632 129.8167,24.7313 C130.1263,25.1786 130.645,25.4736 131.2213,25.4677 C132.1407,25.4583 132.8993,24.6859 132.8915,23.7665 C132.8837,22.8472 132.1133,22.0864 131.1939,22.0927 M124.8232,27.2299 A0.75,0.75 0 0 0 124.7757,27.2325 A0.75,0.75 0 0 0 124.7514,27.2335 A0.75,0.75 0 0 0 124.7256,27.2351 L119.4634,27.866 A0.75,0.75 0 0 0 118.8091,28.7001 A0.75,0.75 0 0 0 119.6432,29.3564 L121.4684,29.1367 C120.0591,30.4932 119.0992,32.3219 118.6903,35.1436 A1.25,1.25 0 0 0 119.7486,36.5595 A1.25,1.25 0 0 0 121.1645,35.5027 C121.569,32.712 122.1961,31.6257 123.5292,30.6089 L123.1432,32.5576 A0.75,0.75 0 0 0 123.7349,33.4402 A0.75,0.75 0 0 0 124.616,32.8501 L125.5513,28.1258 A0.75,0.75 0 0 0 125.5554,28.0969 A0.75,0.75 0 0 0 125.5559,28.0912 A0.75,0.75 0 0 0 125.5642,27.993 A0.75,0.75 0 0 0 125.5642,27.9889 A0.75,0.75 0 0 0 125.5595,27.8995 A0.75,0.75 0 0 0 125.559,27.8891 A0.75,0.75 0 0 0 125.5559,27.8736 A0.75,0.75 0 0 0 125.543,27.8054 A0.75,0.75 0 0 0 125.5358,27.777 A0.75,0.75 0 0 0 125.5146,27.7124 A0.75,0.75 0 0 0 125.5022,27.683 A0.75,0.75 0 0 0 125.4743,27.6251 A0.75,0.75 0 0 0 125.4567,27.5941 A0.75,0.75 0 0 0 125.4226,27.5424 A0.75,0.75 0 0 0 125.3999,27.5129 A0.75,0.75 0 0 0 125.3637,27.47 A0.75,0.75 0 0 0 125.3275,27.4344 A0.75,0.75 0 0 0 125.2945,27.4049 A0.75,0.75 0 0 0 125.2536,27.3729 A0.75,0.75 0 0 0 125.2159,27.347 A0.75,0.75 0 0 0 125.1637,27.3176 A0.75,0.75 0 0 0 125.1332,27.3021 A0.75,0.75 0 0 0 125.0779,27.2793 A0.75,0.75 0 0 0 125.0392,27.2654 A0.75,0.75 0 0 0 124.9844,27.2509 A0.75,0.75 0 0 0 124.9617,27.2447 A0.75,0.75 0 0 0 124.9451,27.2426 A0.75,0.75 0 0 0 124.881,27.2343 A0.75,0.75 0 0 0 124.85,27.2317 A0.75,0.75 0 0 0 124.8232,27.2296" fill="#000000"/><text fill="#000000" font-family="Verdana" font-size="12" lengthAdjust="spacing" textLength="93.3574" x="30.3213" y="47.1387">CourseOfAction</text></g><!--SRC=[AyxEp2j8B4hCLKXAJCvEByelpKjnpi_9Br8eAKhCAmPAfUQLS2bcvYNdbAQaAjWa5YLdPEOcbgJgEy9OTbp1GBKbgUcLySxvfKN5gVvfZiabcVbv6gXS7GKbL04bJG00]--></g></svg>