<svg xmlns="http://www.w3.org/2000/svg" xmlns:xlink="http://www.w3.org/1999/xlink" contentStyleType="text/css" data-diagram-type="DESCRIPTION" height="73px" preserveAspectRatio="none" style="width:161px;height:73px;background:#FFFFFF;" version="1.1" viewBox="0 0 161 73" width="161px" zoomAndPan="magnify"><defs/><g><!--entity ValueStream--><g class="entity" data-entity="ValueStream" data-source-line="101" data-uid="ent0002" id="entity_ValueStream"><rect fill="#F8E7C0" height="52.9688" rx="12.5" ry="12.5" style="stroke:#181818;stroke-width:0.5;" width="140" x="7" y="7"/><path d="M118.871,20.447 A0.5001,0.5001 0 0 0 118.486,21.2656 L123.2811,27.0311 L118.4922,32.6271 A0.5001,0.5001 0 0 0 118.8731,33.4529 L131.9041,33.4198 A0.5001,0.5001 0 0 0 132.2849,33.24 L137.2789,27.2869 A0.5001,0.5001 0 0 0 137.281,26.6466 L132.2906,20.6268 A0.5001,0.5001 0 0 0 131.9056,20.447 M119.9371,21.4475 L131.6721,21.4475 L136.246,26.965 L131.668,32.42 L119.959,32.451 L124.3143,27.3614 A0.5001,0.5001 0 0 0 124.3205,26.717" fill="#000000"/><text fill="#000000" font-family="Verdana" font-size="12" lengthAdjust="spacing" textLength="77.5664" x="38.2168" y="47.1387">ValueStream</text></g><!--SRC=[AyxEp2j8B4hCLKXAJCvEByelpKjnpi_9Br8eAKhCAmPAfUQLS2bcvYNdbAQaAjWa5YLdPEOcbgJgEy9OTbp1GBKbgUcLyM69EQMfG5vgOgu64bj7GGc9fwG90000]--></g></svg>