<svg xmlns="http://www.w3.org/2000/svg" xmlns:xlink="http://www.w3.org/1999/xlink" contentStyleType="text/css" data-diagram-type="DESCRIPTION" height="73px" preserveAspectRatio="none" style="width:161px;height:73px;background:#FFFFFF;" version="1.1" viewBox="0 0 161 73" width="161px" zoomAndPan="magnify"><defs/><g><!--entity Collaboration--><g class="entity" data-entity="Collaboration" data-source-line="213" data-uid="ent0002" id="entity_Collaboration"><rect fill="#C9FFC9" height="52.9688" rx="0.5" ry="0.5" style="stroke:#181818;stroke-width:0.5;" width="140" x="7" y="7"/><path d="M125.191,20.86 A0.5,0.5 0 0 0 125.1698,20.8703 A0.5,0.5 0 0 0 125.1502,20.8623 C121.731,20.9088 118.9848,23.7263 119.0255,27.1456 C119.0662,30.5649 121.8791,33.3156 125.2985,33.2806 C126.2542,33.2706 127.1584,33.0444 127.964,32.6486 C128.8065,33.0624 129.7549,33.2908 130.7556,33.2806 C134.175,33.2456 136.9296,30.4379 136.9004,27.0184 C136.8712,23.599 134.0676,20.8367 130.6481,20.8601 A0.5,0.5 0 0 0 130.6346,20.8741 A0.5,0.5 0 0 0 130.6072,20.8622 C129.6593,20.8751 128.7629,21.1011 127.9634,21.4937 C127.1267,21.0821 126.1848,20.8533 125.191,20.8601 M130.6325,21.8506 A0.5,0.5 0 0 0 130.6563,21.8606 C133.536,21.8409 135.8759,24.1471 135.9004,27.0267 C135.9249,29.9063 133.6237,32.2512 130.7441,32.2806 C130.1345,32.2866 129.5486,32.1888 129.0036,32.0031 C130.5003,30.8562 131.4605,29.0447 131.4432,27.0184 C131.4262,25.0309 130.4717,23.2656 129.0041,22.1402 C129.5115,21.9674 130.0552,21.8704 130.6211,21.8627 A0.5,0.5 0 0 0 130.6324,21.8508 M125.1832,21.8546 A0.5,0.5 0 0 0 125.1992,21.8606 C125.8032,21.8566 126.3835,21.9548 126.9236,22.1392 C125.4202,23.2906 124.4582,25.1115 124.4824,27.1456 C124.506,29.1259 125.4594,30.8817 126.922,32.0022 C126.409,32.1771 125.8595,32.2749 125.287,32.2807 C122.4074,32.3101 120.0596,30.0133 120.0253,27.1337 C119.991,24.2542 122.2845,21.9019 125.164,21.8627 A0.5,0.5 0 0 0 125.1831,21.8547 M127.9644,22.6293 C129.4403,23.5371 130.4274,25.162 130.4433,27.027 C130.4595,28.9245 129.4654,30.5894 127.9618,31.513 C126.4906,30.609 125.5045,28.9935 125.4824,27.1345 C125.4597,25.2303 126.4549,23.5561 127.9644,22.6293" fill="#000000"/><text fill="#000000" font-family="Verdana" font-size="12" lengthAdjust="spacing" textLength="79.9746" x="37.0127" y="47.1387">Collaboration</text></g><!--SRC=[AyxEp2j8B4hCLKXAJCvEByelpKjnpi_9Br8eAKhCAmPAfUQLS2bcvYNdbAQaAjWa5YLdPEOcbgJgEy9OTbmXgSaPUK1DwPNnGBqvYKdvHOabcVbv6YWy7GKb5BwI9W00]--></g></svg>