<svg xmlns="http://www.w3.org/2000/svg" xmlns:xlink="http://www.w3.org/1999/xlink" contentStyleType="text/css" data-diagram-type="DESCRIPTION" height="73px" preserveAspectRatio="none" style="width:161px;height:73px;background:#FFFFFF;" version="1.1" viewBox="0 0 161 73" width="161px" zoomAndPan="magnify"><defs/><g><!--entity Artifact--><g class="entity" data-entity="Artifact" data-source-line="247" data-uid="ent0002" id="entity_Artifact"><rect fill="#C9FFC9" height="52.9688" rx="0.5" ry="0.5" style="stroke:#181818;stroke-width:0.5;" width="140" x="7" y="7"/><path d="M123.03,20.55 A0.5001,0.5001 0 0 0 122.5298,21.0502 L122.5298,33.2592 A0.5001,0.5001 0 0 0 123.03,33.7589 L133.278,33.7589 A0.5001,0.5001 0 0 0 133.7777,33.2592 L133.7777,24.1321 A0.5001,0.5001 0 0 0 133.6315,23.7787 L130.5516,20.6967 A0.5001,0.5001 0 0 0 130.4244,20.6714 A0.5001,0.5001 0 0 0 130.1314,20.5499 M123.5297,21.5499 L129.6978,21.5499 L129.6978,24.1988 A0.5001,0.5001 0 0 0 130.1975,24.6985 L132.7777,24.6985 L132.7777,32.759 L123.5297,32.759 M130.6977,22.3235 L132.0707,23.6986 L130.6977,23.6986" fill="#000000"/><text fill="#000000" font-family="Verdana" font-size="12" lengthAdjust="spacing" textLength="44.0625" x="54.9688" y="47.1387">Artifact</text></g><!--SRC=[AyxEp2j8B4hCLKXAJCvEByelpKjnpi_9Br8eAKhCAmPAfUQLS2bcvYNdbAQaAjWa5YLdPEOcbgJgEy9OTbmXgSaPUK1DwPNnZaKbcMc9oIKQC8QEWXACgQG90000]--></g></svg>