<svg xmlns="http://www.w3.org/2000/svg" xmlns:xlink="http://www.w3.org/1999/xlink" contentStyleType="text/css" data-diagram-type="DESCRIPTION" height="73px" preserveAspectRatio="none" style="width:161px;height:73px;background:#FFFFFF;" version="1.1" viewBox="0 0 161 73" width="161px" zoomAndPan="magnify"><defs/><g><!--entity SystemSoftware--><g class="entity" data-entity="SystemSoftware" data-source-line="210" data-uid="ent0002" id="entity_SystemSoftware"><rect fill="#C9FFC9" height="52.9688" rx="0.5" ry="0.5" style="stroke:#181818;stroke-width:0.5;" width="140" x="7" y="7"/><path d="M127.99,20.35 C125.4646,20.3117 123.1708,21.8095 122.1842,24.1208 C120.8098,25.2772 119.9437,27.0166 119.9668,28.9479 C120.0076,32.3672 122.8204,35.1194 126.2398,35.0845 C128.7722,35.0586 130.94,33.5111 131.8824,31.3209 A0.5,0.5 0 0 0 131.8943,31.3109 C133.8762,29.6433 134.6149,26.9151 133.7459,24.4751 C132.8769,22.0351 130.58,20.3891 127.9902,20.3498 M127.9745,21.3499 C130.1503,21.3829 132.0725,22.7607 132.8026,24.8107 C133.3329,26.2997 133.152,27.912 132.3752,29.2197 C132.3822,29.0877 132.3856,28.9548 132.3842,28.8208 C132.355,25.4014 129.5519,22.6412 126.1324,22.6646 A0.5,0.5 0 0 0 126.1128,22.6726 A0.5,0.5 0 0 0 126.0911,22.6646 C125.3765,22.6746 124.6916,22.8052 124.0551,23.0372 C125.0409,21.9625 126.4559,21.3269 127.9742,21.35 M126.1229,23.6567 A0.5,0.5 0 0 0 126.1405,23.6647 C129.0202,23.645 131.3601,25.9512 131.3846,28.8308 C131.4092,31.7104 129.1079,34.0553 126.2283,34.0847 C123.3487,34.1141 121.0009,31.8157 120.9666,28.9362 C120.9477,27.3478 121.6368,25.9199 122.7422,24.952 A0.5,0.5 0 0 0 123.0073,24.7345 C123.8661,24.0769 124.9377,23.6807 126.1053,23.6648 A0.5,0.5 0 0 0 126.1229,23.6568" fill="#000000"/><text fill="#000000" font-family="Verdana" font-size="12" lengthAdjust="spacing" textLength="98.1211" x="27.9395" y="47.1387">SystemSoftware</text></g><!--SRC=[AyxEp2j8B4hCLKXAJCvEByelpKjnpi_9Br8eAKhCAmPAfUQLS2bcvYNdbAQaAjWa5YLdPEOcbgJgEy9OTbmXgSaPUK1DwPNnmPN59QcvmVbf9UL0hHgeN1q59LG19Kq0]--></g></svg>