<svg xmlns="http://www.w3.org/2000/svg" xmlns:xlink="http://www.w3.org/1999/xlink" contentStyleType="text/css" data-diagram-type="DESCRIPTION" height="73px" preserveAspectRatio="none" style="width:161px;height:73px;background:#FFFFFF;" version="1.1" viewBox="0 0 161 73" width="161px" zoomAndPan="magnify"><defs/><g><!--entity Node--><g class="entity" data-entity="Node" data-source-line="203" data-uid="ent0002" id="entity_Node"><rect fill="#C9FFC9" height="52.9688" rx="0.5" ry="0.5" style="stroke:#181818;stroke-width:0.5;" width="140" x="7" y="7"/><path d="M124.023,19.9 A0.5001,0.5001 0 0 0 123.7186,19.9992 L119.6176,23.0745 L119.6032,23.0854 L119.6037,23.0859 A0.5001,0.5001 0 0 0 119.4021,23.488 L119.4492,32.2358 A0.5001,0.5001 0 0 0 119.9473,32.7318 L131.8743,32.7788 A0.5001,0.5001 0 0 0 132.3105,32.5267 L136.2534,29.4468 A0.5001,0.5001 0 0 0 136.4446,29.0525 L136.4446,20.4918 A0.5001,0.5001 0 0 0 135.9485,19.9915 M124.1832,20.8999 L134.4572,20.98 L131.7127,23.0321 L121.3957,22.9913 M135.4452,21.4911 L135.4452,28.808 L132.3767,31.2073 L132.3767,23.7824 M120.4042,23.9876 L131.3762,24.031 L131.3762,31.7768 L120.4462,31.7339" fill="#000000"/><text fill="#000000" font-family="Verdana" font-size="12" lengthAdjust="spacing" textLength="31.3184" x="61.3408" y="47.1387">Node</text></g><!--SRC=[AyxEp2j8B4hCLKXAJCvEByelpKjnpi_9Br8eAKhCAmPAfUQLS2bcvYNdbAQaAjWa5YLdPEOcbgJgEy9OTbmXgSaPUK1DwPNnVlafgHeWGaT12KGfQG80]--></g></svg>