<svg xmlns="http://www.w3.org/2000/svg" xmlns:xlink="http://www.w3.org/1999/xlink" contentStyleType="text/css" data-diagram-type="DESCRIPTION" height="73px" preserveAspectRatio="none" style="width:161px;height:73px;background:#FFFFFF;" version="1.1" viewBox="0 0 161 73" width="161px" zoomAndPan="magnify"><defs/><g><!--entity Path--><g class="entity" data-entity="Path" data-source-line="219" data-uid="ent0002" id="entity_Path"><rect fill="#C9FFC9" height="52.9688" rx="0.5" ry="0.5" style="stroke:#181818;stroke-width:0.5;" width="140" x="7" y="7"/><path d="M131.807,21.51 A0.5,0.5 0 0 0 131.4535,21.6563 A0.5,0.5 0 0 0 131.4535,22.3632 L136.1741,27.0838 L131.547,31.713 A0.5,0.5 0 0 0 131.547,32.4199 A0.5,0.5 0 0 0 132.254,32.4199 L137.2346,27.4378 A0.5001,0.5001 0 0 0 137.2346,26.7304 L132.1605,21.6563 A0.5,0.5 0 0 0 131.807,21.51 M123.9263,21.557 A0.5,0.5 0 0 0 123.5723,21.7032 L118.5902,26.6838 A0.5001,0.5001 0 0 0 118.5902,27.3908 L123.6664,32.467 A0.5,0.5 0 0 0 124.3733,32.467 A0.5,0.5 0 0 0 124.3733,31.76 L119.6506,27.0373 L124.2798,22.4102 A0.5,0.5 0 0 0 124.2798,21.7033 A0.5,0.5 0 0 0 123.9264,21.557 M121.961,26.6073 A0.5,0.5 0 0 0 121.4613,27.1075 A0.5,0.5 0 0 0 121.961,27.6072 L125.9613,27.6072 A0.5,0.5 0 0 0 126.461,27.1075 A0.5,0.5 0 0 0 125.9613,26.6073 M129.961,26.6073 A0.5,0.5 0 0 0 129.4613,27.1075 A0.5,0.5 0 0 0 129.961,27.6072 L133.9613,27.6072 A0.5,0.5 0 0 0 134.461,27.1075 A0.5,0.5 0 0 0 133.9613,26.6073" fill="#000000"/><text fill="#000000" font-family="Verdana" font-size="12" lengthAdjust="spacing" textLength="26.9004" x="63.5498" y="47.1387">Path</text></g><!--SRC=[AyxEp2j8B4hCLKXAJCvEByelpKjnpi_9Br8eAKhCAmPAfUQLS2bcvYNdbAQaAjWa5YLdPEOcbgJgEy9OTbmXgSaPUK1DwPNn0Oab6HeWGaT12KGfQG80]--></g></svg>