<svg xmlns="http://www.w3.org/2000/svg" xmlns:xlink="http://www.w3.org/1999/xlink" contentStyleType="text/css" data-diagram-type="DESCRIPTION" height="73px" preserveAspectRatio="none" style="width:185px;height:73px;background:#FFFFFF;" version="1.1" viewBox="0 0 185 73" width="185px" zoomAndPan="magnify"><defs/><g><!--entity CommunicationNetwork--><g class="entity" data-entity="CommunicationNetwork" data-source-line="222" data-uid="ent0002" id="entity_CommunicationNetwork"><rect fill="#C9FFC9" height="52.9688" rx="0.5" ry="0.5" style="stroke:#181818;stroke-width:0.5;" width="164.6855" x="7" y="7"/><path d="M150.0905,22.83 C149.9645,22.832 149.8849,22.9417 149.7665,22.9705 A0.959,0.959 0 0 0 149.4224,23.1209 C148.8639,23.4038 148.4187,23.8775 148.4266,24.5368 C148.4332,25.0887 148.7145,25.5826 149.1371,25.8871 L146.6918,30.4207 C146.4756,30.3209 146.2361,30.2655 145.9854,30.2672 A0.959,0.959 0 0 0 145.9771,30.2712 A0.959,0.959 0 0 0 145.9735,30.2672 C145.8304,30.2693 145.739,30.3909 145.6061,30.4274 A0.959,0.959 0 0 0 145.3074,30.5561 C144.7482,30.8387 144.3017,31.3142 144.3095,31.9741 C144.3205,32.8934 145.095,33.6495 146.0143,33.6401 C146.7461,33.6331 147.3761,33.1417 147.5987,32.4779 L153.3601,32.4779 C153.5717,33.1778 154.2335,33.6949 154.9946,33.6871 C155.914,33.6781 156.6726,32.9053 156.6648,31.9859 C156.6606,31.4946 156.4383,31.0489 156.0917,30.7415 L158.5737,26.1676 C158.7432,26.2238 158.9237,26.2532 159.1101,26.2513 C160.0295,26.2423 160.7876,25.4679 160.7798,24.5486 C160.772,23.6293 160.0001,22.8701 159.0807,22.8764 A0.959,0.959 0 0 0 159.0729,22.8804 A0.959,0.959 0 0 0 159.0693,22.8764 C158.9262,22.8784 158.8348,23 158.7019,23.0366 A0.959,0.959 0 0 0 158.4032,23.1658 C157.9597,23.39 157.5868,23.7352 157.4555,24.1978 L151.7623,24.1678 C151.5968,23.4062 150.9049,22.8244 150.1004,22.8299 A0.959,0.959 0 0 0 150.0947,22.8319 A0.959,0.959 0 0 0 150.0906,22.8299 M151.7803,24.7689 L157.4213,24.7984 C157.4837,25.2327 157.7163,25.6172 158.0471,25.8815 L155.5796,30.428 C155.3883,30.3532 155.1812,30.3128 154.9657,30.3143 A0.959,0.959 0 0 0 154.9579,30.3183 A0.959,0.959 0 0 0 154.9538,30.3143 C154.8028,30.3163 154.7048,30.4418 154.5652,30.4823 A0.959,0.959 0 0 0 154.2877,30.6032 C153.7697,30.8646 153.3491,31.2909 153.2955,31.8765 L147.6824,31.8765 C147.6625,31.4461 147.4757,31.0551 147.1863,30.766 L149.6792,26.1466 C149.8233,26.1859 149.9744,26.2066 150.1299,26.205 C150.9591,26.197 151.6573,25.5669 151.7804,24.7689" fill="#000000"/><text fill="#000000" font-family="Verdana" font-size="12" lengthAdjust="spacing" textLength="144.6855" x="17" y="47.1387">CommunicationNetwork</text></g><!--SRC=[ROin2eH0301xNx5QtO5m7n11xA-obnY3XdMJ8sOHVtysTdR33BD7bXyOf301niKqozphfXRSGFOhaNXHik2MPmeD6AwSmEdJtTGM0-4grxISOwyfPM44PvKl-Q4MNq-o3jMJhjv_]--></g></svg>