<svg xmlns="http://www.w3.org/2000/svg" xmlns:xlink="http://www.w3.org/1999/xlink" contentStyleType="text/css" data-diagram-type="DESCRIPTION" height="73px" preserveAspectRatio="none" style="width:161px;height:73px;background:#FFFFFF;" version="1.1" viewBox="0 0 161 73" width="161px" zoomAndPan="magnify"><defs/><g><!--entity Device--><g class="entity" data-entity="Device" data-source-line="207" data-uid="ent0002" id="entity_Device"><rect fill="#C9FFC9" height="52.9688" rx="0.5" ry="0.5" style="stroke:#181818;stroke-width:0.5;" width="140" x="7" y="7"/><path d="M119.95,20.06 A0.5001,0.5001 0 0 0 119.4498,20.5561 L119.3562,30.4723 A0.5001,0.5001 0 0 0 119.8559,30.9761 L122.8929,30.9761 L120.6352,33.1067 A0.5001,0.5001 0 0 0 120.9773,33.9702 L134.9143,34.0172 A0.5001,0.5001 0 0 0 135.2936,33.1868 L133.3562,30.9761 L136.0392,30.9761 A0.5001,0.5001 0 0 0 136.5395,30.4743 L136.4925,20.5581 A0.5001,0.5001 0 0 0 135.9927,20.06 M120.444,21.0599 L135.495,21.0599 L135.5379,29.9761 L120.3599,29.9761 M123.8211,31.4759 L132.4655,31.4759 L133.8112,33.0133 L122.2312,32.974" fill="#000000"/><text fill="#000000" font-family="Verdana" font-size="12" lengthAdjust="spacing" textLength="41.0391" x="56.4805" y="47.1387">Device</text></g><!--SRC=[AyxEp2j8B4hCLKXAJCvEByelpKjnpi_9Br8eAKhCAmPAfUQLS2bcvYNdbAQaAjWa5YLdPEOcbgJgEy9OTbmXgSaPUK1DwPNnBgbbcScf6X1AHq49mb3I1000]--></g></svg>