<svg xmlns="http://www.w3.org/2000/svg" xmlns:xlink="http://www.w3.org/1999/xlink" contentStyleType="text/css" data-diagram-type="DESCRIPTION" height="73px" preserveAspectRatio="none" style="width:161px;height:73px;background:#FFFFFF;" version="1.1" viewBox="0 0 161 73" width="161px" zoomAndPan="magnify"><defs/><g><!--entity Service--><g class="entity" data-entity="Service" data-source-line="240" data-uid="ent0002" id="entity_Service"><rect fill="#C9FFC9" height="52.9688" rx="12.5" ry="12.5" style="stroke:#181818;stroke-width:0.5;" width="140" x="7" y="7"/><path d="M124.5,22.91 C121.8244,22.904 119.6469,25.1141 119.6228,27.8322 C119.5987,30.5503 121.7369,32.8017 124.4122,32.8458 A0.5,0.5 0 0 0 124.4277,32.8458 L131.9687,32.8458 A0.5,0.5 0 0 0 131.9747,32.8458 C134.6619,32.821 136.8199,30.5674 136.7987,27.8378 C136.7776,25.1196 134.6017,22.9112 131.9297,22.9115 L131.9297,22.9095 L131.8966,22.9095 M124.498,23.9099 A0.5,0.5 0 0 0 124.502,23.9099 L131.9294,23.9099 C134.0519,23.9101 135.7814,25.6535 135.7984,27.8456 C135.8155,30.0456 134.1017,31.8239 131.9687,31.8459 C131.9677,31.846 131.9657,31.8459 131.9647,31.8459 L124.4298,31.8459 C122.3046,31.8108 120.6033,30.0341 120.6228,27.842 C120.6423,25.6499 122.3725,23.9056 124.498,23.9099" fill="#000000"/><text fill="#000000" font-family="Verdana" font-size="12" lengthAdjust="spacing" textLength="44.3496" x="54.8252" y="47.1387">Service</text></g><!--SRC=[AyxEp2j8B4hCLKXAJCvEByelpKjnpi_9Br8eAKhCAmPAfUQLS2bcvYNdbAQaAjWa5YLdPEOcbgJgEy9OTbmXgSaPUK1DwPNnmQb5PPd9gHfGMaT12SfIqWG0]--></g></svg>